<?xml version="1.0" encoding="UTF-8" standalone="no"?>
<!DOCTYPE svg PUBLIC "-//W3C//DTD SVG 1.1//EN"
 "http://www.w3.org/Graphics/SVG/1.1/DTD/svg11.dtd">
<!-- Generated by graphviz version 2.38.0 (20140413.2041)
 -->
<!-- Title: controllers_diagram Pages: 1 -->
<svg width="883pt" height="972pt"
 viewBox="0.00 0.00 883.12 972.00" xmlns="http://www.w3.org/2000/svg" xmlns:xlink="http://www.w3.org/1999/xlink">
<g id="graph0" class="graph" transform="scale(1 1) rotate(0) translate(326.431 623.5)">
<title>controllers_diagram</title>
<polygon fill="white" stroke="none" points="-326.431,348.5 -326.431,-623.5 556.688,-623.5 556.688,348.5 -326.431,348.5"/>
<!-- _diagram_info -->
<g id="node1" class="node"><title>_diagram_info</title>
<text text-anchor="start" x="353.312" y="9.9" font-family="Times,serif" font-size="13.00">Controllers diagram</text>
<text text-anchor="start" x="353.312" y="22.9" font-family="Times,serif" font-size="13.00">Date: Apr 20 2015 &#45; 10:54</text>
<text text-anchor="start" x="353.312" y="35.9" font-family="Times,serif" font-size="13.00">Migration version: 20150416040722</text>
<text text-anchor="start" x="353.312" y="48.9" font-family="Times,serif" font-size="13.00">Generated by RailRoady 1.3.0</text>
<text text-anchor="start" x="353.312" y="61.9" font-family="Times,serif" font-size="13.00">http://railroady.prestonlee.com</text>
</g>
<!-- ApplicationController -->
<g id="node2" class="node"><title>ApplicationController</title>
<path fill="none" stroke="black" d="M127.034,321C127.034,321 300.966,321 300.966,321 306.966,321 312.966,315 312.966,309 312.966,309 312.966,175 312.966,175 312.966,169 306.966,163 300.966,163 300.966,163 127.034,163 127.034,163 121.034,163 115.034,169 115.034,175 115.034,175 115.034,309 115.034,309 115.034,315 121.034,321 127.034,321"/>
<text text-anchor="middle" x="214" y="178.2" font-family="Times,serif" font-size="14.00">ApplicationController</text>
<polyline fill="none" stroke="black" points="115.034,185 312.966,185 "/>
<text text-anchor="start" x="123.034" y="200.2" font-family="Times,serif" font-size="14.00">adjust_time_zone_offset</text>
<text text-anchor="start" x="123.034" y="214.2" font-family="Times,serif" font-size="14.00">after_sign_in_path_for</text>
<text text-anchor="start" x="123.034" y="228.2" font-family="Times,serif" font-size="14.00">correct_time_from_datepicker</text>
<text text-anchor="start" x="123.034" y="242.2" font-family="Times,serif" font-size="14.00">round_second</text>
<text text-anchor="start" x="123.034" y="256.2" font-family="Times,serif" font-size="14.00">to_eastern_time</text>
<text text-anchor="start" x="123.034" y="270.2" font-family="Times,serif" font-size="14.00">to_second</text>
<polyline fill="none" stroke="black" points="115.034,277 312.966,277 "/>
<text text-anchor="start" x="123.034" y="292.2" font-family="Times,serif" font-size="14.00">configure_permitted_parameters</text>
<polyline fill="none" stroke="black" points="115.034,299 312.966,299 "/>
<text text-anchor="start" x="123.034" y="314.2" font-family="Times,serif" font-size="14.00">_layout</text>
</g>
<!-- EventsController -->
<g id="node3" class="node"><title>EventsController</title>
<path fill="none" stroke="black" d="M126.969,114C126.969,114 283.031,114 283.031,114 289.031,114 295.031,108 295.031,102 295.031,102 295.031,-314 295.031,-314 295.031,-320 289.031,-326 283.031,-326 283.031,-326 126.969,-326 126.969,-326 120.969,-326 114.969,-320 114.969,-314 114.969,-314 114.969,102 114.969,102 114.969,108 120.969,114 126.969,114"/>
<text text-anchor="middle" x="205" y="-310.8" font-family="Times,serif" font-size="14.00">EventsController</text>
<polyline fill="none" stroke="black" points="114.969,-304 295.031,-304 "/>
<text text-anchor="start" x="122.969" y="-288.8" font-family="Times,serif" font-size="14.00">PUD_events</text>
<text text-anchor="start" x="122.969" y="-274.8" font-family="Times,serif" font-size="14.00">busy_events</text>
<text text-anchor="start" x="122.969" y="-260.8" font-family="Times,serif" font-size="14.00">create</text>
<text text-anchor="start" x="122.969" y="-246.8" font-family="Times,serif" font-size="14.00">create_html_email</text>
<text text-anchor="start" x="122.969" y="-232.8" font-family="Times,serif" font-size="14.00">created_events</text>
<text text-anchor="start" x="122.969" y="-218.8" font-family="Times,serif" font-size="14.00">delete</text>
<text text-anchor="start" x="122.969" y="-204.8" font-family="Times,serif" font-size="14.00">edit</text>
<text text-anchor="start" x="122.969" y="-190.8" font-family="Times,serif" font-size="14.00">event_list_reveal_modal</text>
<text text-anchor="start" x="122.969" y="-176.8" font-family="Times,serif" font-size="14.00">get_subscribers</text>
<text text-anchor="start" x="122.969" y="-162.8" font-family="Times,serif" font-size="14.00">index</text>
<text text-anchor="start" x="122.969" y="-148.8" font-family="Times,serif" font-size="14.00">invited_events</text>
<text text-anchor="start" x="122.969" y="-134.8" font-family="Times,serif" font-size="14.00">new</text>
<text text-anchor="start" x="122.969" y="-120.8" font-family="Times,serif" font-size="14.00">new_event_modal</text>
<text text-anchor="start" x="122.969" y="-106.8" font-family="Times,serif" font-size="14.00">preferenced_slots</text>
<text text-anchor="start" x="122.969" y="-92.8" font-family="Times,serif" font-size="14.00">print_pdf</text>
<text text-anchor="start" x="122.969" y="-78.8" font-family="Times,serif" font-size="14.00">requests_modal</text>
<text text-anchor="start" x="122.969" y="-64.8" font-family="Times,serif" font-size="14.00">resolved_slots</text>
<text text-anchor="start" x="122.969" y="-50.8" font-family="Times,serif" font-size="14.00">send_email_with_attachment</text>
<text text-anchor="start" x="122.969" y="-36.8" font-family="Times,serif" font-size="14.00">send_no_events_email</text>
<text text-anchor="start" x="122.969" y="-22.8" font-family="Times,serif" font-size="14.00">show_events_in_range</text>
<text text-anchor="start" x="122.969" y="-8.8" font-family="Times,serif" font-size="14.00">show_graphic_cal</text>
<text text-anchor="start" x="122.969" y="5.2" font-family="Times,serif" font-size="14.00">to_do_list_modal</text>
<text text-anchor="start" x="122.969" y="19.2" font-family="Times,serif" font-size="14.00">update</text>
<text text-anchor="start" x="122.969" y="33.2" font-family="Times,serif" font-size="14.00">visible_events</text>
<polyline fill="none" stroke="black" points="114.969,40 295.031,40 "/>
<polyline fill="none" stroke="black" points="114.969,64 295.031,64 "/>
<text text-anchor="start" x="122.969" y="79.2" font-family="Times,serif" font-size="14.00">_layout</text>
<text text-anchor="start" x="122.969" y="93.2" font-family="Times,serif" font-size="14.00">event_params</text>
<text text-anchor="start" x="122.969" y="107.2" font-family="Times,serif" font-size="14.00">set_event</text>
</g>
<!-- FreeTimeController -->
<g id="node4" class="node"><title>FreeTimeController</title>
<path fill="none" stroke="black" d="M-310.431,-1C-310.431,-1 -167.569,-1 -167.569,-1 -161.569,-1 -155.569,-7 -155.569,-13 -155.569,-13 -155.569,-247 -155.569,-247 -155.569,-253 -161.569,-259 -167.569,-259 -167.569,-259 -310.431,-259 -310.431,-259 -316.431,-259 -322.431,-253 -322.431,-247 -322.431,-247 -322.431,-13 -322.431,-13 -322.431,-7 -316.431,-1 -310.431,-1"/>
<text text-anchor="middle" x="-239" y="-243.8" font-family="Times,serif" font-size="14.00">FreeTimeController</text>
<polyline fill="none" stroke="black" points="-322.431,-237 -155.569,-237 "/>
<text text-anchor="start" x="-314.431" y="-221.8" font-family="Times,serif" font-size="14.00">conflict</text>
<text text-anchor="start" x="-314.431" y="-207.8" font-family="Times,serif" font-size="14.00">create</text>
<text text-anchor="start" x="-314.431" y="-193.8" font-family="Times,serif" font-size="14.00">find</text>
<text text-anchor="start" x="-314.431" y="-179.8" font-family="Times,serif" font-size="14.00">show</text>
<polyline fill="none" stroke="black" points="-322.431,-173 -155.569,-173 "/>
<polyline fill="none" stroke="black" points="-322.431,-149 -155.569,-149 "/>
<text text-anchor="start" x="-314.431" y="-133.8" font-family="Times,serif" font-size="14.00">_layout</text>
<text text-anchor="start" x="-314.431" y="-119.8" font-family="Times,serif" font-size="14.00">contains_time</text>
<text text-anchor="start" x="-314.431" y="-105.8" font-family="Times,serif" font-size="14.00">eliminate_small_durations</text>
<text text-anchor="start" x="-314.431" y="-91.8" font-family="Times,serif" font-size="14.00">get_users_to_search</text>
<text text-anchor="start" x="-314.431" y="-77.8" font-family="Times,serif" font-size="14.00">get_weekday_indexes</text>
<text text-anchor="start" x="-314.431" y="-63.8" font-family="Times,serif" font-size="14.00">map_free_time</text>
<text text-anchor="start" x="-314.431" y="-49.8" font-family="Times,serif" font-size="14.00">map_user_conflict</text>
<text text-anchor="start" x="-314.431" y="-35.8" font-family="Times,serif" font-size="14.00">next_week_day</text>
<text text-anchor="start" x="-314.431" y="-21.8" font-family="Times,serif" font-size="14.00">parse_possible_start_times</text>
<text text-anchor="start" x="-314.431" y="-7.8" font-family="Times,serif" font-size="14.00">parse_search_days</text>
</g>
<!-- GroupsController -->
<g id="node5" class="node"><title>GroupsController</title>
<path fill="none" stroke="black" d="M356.617,344C356.617,344 447.383,344 447.383,344 453.383,344 459.383,338 459.383,332 459.383,332 459.383,126 459.383,126 459.383,120 453.383,114 447.383,114 447.383,114 356.617,114 356.617,114 350.617,114 344.617,120 344.617,126 344.617,126 344.617,332 344.617,332 344.617,338 350.617,344 356.617,344"/>
<text text-anchor="middle" x="402" y="129.2" font-family="Times,serif" font-size="14.00">GroupsController</text>
<polyline fill="none" stroke="black" points="344.617,136 459.383,136 "/>
<text text-anchor="start" x="352.617" y="151.2" font-family="Times,serif" font-size="14.00">create</text>
<text text-anchor="start" x="352.617" y="165.2" font-family="Times,serif" font-size="14.00">delete</text>
<text text-anchor="start" x="352.617" y="179.2" font-family="Times,serif" font-size="14.00">destroy</text>
<text text-anchor="start" x="352.617" y="193.2" font-family="Times,serif" font-size="14.00">edit</text>
<text text-anchor="start" x="352.617" y="207.2" font-family="Times,serif" font-size="14.00">index</text>
<text text-anchor="start" x="352.617" y="221.2" font-family="Times,serif" font-size="14.00">new</text>
<text text-anchor="start" x="352.617" y="235.2" font-family="Times,serif" font-size="14.00">new_modal</text>
<text text-anchor="start" x="352.617" y="249.2" font-family="Times,serif" font-size="14.00">save_item</text>
<text text-anchor="start" x="352.617" y="263.2" font-family="Times,serif" font-size="14.00">show</text>
<text text-anchor="start" x="352.617" y="277.2" font-family="Times,serif" font-size="14.00">update</text>
<polyline fill="none" stroke="black" points="344.617,284 459.383,284 "/>
<polyline fill="none" stroke="black" points="344.617,308 459.383,308 "/>
<text text-anchor="start" x="352.617" y="323.2" font-family="Times,serif" font-size="14.00">_layout</text>
<text text-anchor="start" x="352.617" y="337.2" font-family="Times,serif" font-size="14.00">group_params</text>
</g>
<!-- MassEventCreationController -->
<g id="node6" class="node"><title>MassEventCreationController</title>
<path fill="none" stroke="black" d="M-103.125,229C-103.125,229 65.1255,229 65.1255,229 71.1255,229 77.1255,223 77.1255,217 77.1255,217 77.1255,-213 77.1255,-213 77.1255,-219 71.1255,-225 65.1255,-225 65.1255,-225 -103.125,-225 -103.125,-225 -109.125,-225 -115.125,-219 -115.125,-213 -115.125,-213 -115.125,217 -115.125,217 -115.125,223 -109.125,229 -103.125,229"/>
<text text-anchor="middle" x="-19" y="-209.8" font-family="Times,serif" font-size="14.00">MassEventCreationController</text>
<polyline fill="none" stroke="black" points="-115.125,-203 77.1255,-203 "/>
<text text-anchor="start" x="-107.125" y="-187.8" font-family="Times,serif" font-size="14.00">help</text>
<text text-anchor="start" x="-107.125" y="-173.8" font-family="Times,serif" font-size="14.00">index</text>
<text text-anchor="start" x="-107.125" y="-159.8" font-family="Times,serif" font-size="14.00">process_events</text>
<text text-anchor="start" x="-107.125" y="-145.8" font-family="Times,serif" font-size="14.00">show</text>
<polyline fill="none" stroke="black" points="-115.125,-139 77.1255,-139 "/>
<polyline fill="none" stroke="black" points="-115.125,-115 77.1255,-115 "/>
<text text-anchor="start" x="-107.125" y="-99.8" font-family="Times,serif" font-size="14.00">_layout</text>
<text text-anchor="start" x="-107.125" y="-85.8" font-family="Times,serif" font-size="14.00">create_events</text>
<text text-anchor="start" x="-107.125" y="-71.8" font-family="Times,serif" font-size="14.00">create_regular_event</text>
<text text-anchor="start" x="-107.125" y="-57.8" font-family="Times,serif" font-size="14.00">create_request_event</text>
<text text-anchor="start" x="-107.125" y="-43.8" font-family="Times,serif" font-size="14.00">create_slot_event</text>
<text text-anchor="start" x="-107.125" y="-29.8" font-family="Times,serif" font-size="14.00">create_to_do_event</text>
<text text-anchor="start" x="-107.125" y="-15.8" font-family="Times,serif" font-size="14.00">is_int?</text>
<text text-anchor="start" x="-107.125" y="-1.8" font-family="Times,serif" font-size="14.00">parse_participants</text>
<text text-anchor="start" x="-107.125" y="12.2" font-family="Times,serif" font-size="14.00">parse_start_end_time</text>
<text text-anchor="start" x="-107.125" y="26.2" font-family="Times,serif" font-size="14.00">parse_text</text>
<text text-anchor="start" x="-107.125" y="40.2" font-family="Times,serif" font-size="14.00">validate_date</text>
<text text-anchor="start" x="-107.125" y="54.2" font-family="Times,serif" font-size="14.00">validate_duration</text>
<text text-anchor="start" x="-107.125" y="68.2" font-family="Times,serif" font-size="14.00">validate_id_list</text>
<text text-anchor="start" x="-107.125" y="82.2" font-family="Times,serif" font-size="14.00">validate_input</text>
<text text-anchor="start" x="-107.125" y="96.2" font-family="Times,serif" font-size="14.00">validate_integer</text>
<text text-anchor="start" x="-107.125" y="110.2" font-family="Times,serif" font-size="14.00">validate_key</text>
<text text-anchor="start" x="-107.125" y="124.2" font-family="Times,serif" font-size="14.00">validate_keys_of_arguments</text>
<text text-anchor="start" x="-107.125" y="138.2" font-family="Times,serif" font-size="14.00">validate_mandatory_arguments</text>
<text text-anchor="start" x="-107.125" y="152.2" font-family="Times,serif" font-size="14.00">validate_parameter_length</text>
<text text-anchor="start" x="-107.125" y="166.2" font-family="Times,serif" font-size="14.00">validate_regular</text>
<text text-anchor="start" x="-107.125" y="180.2" font-family="Times,serif" font-size="14.00">validate_request</text>
<text text-anchor="start" x="-107.125" y="194.2" font-family="Times,serif" font-size="14.00">validate_slot</text>
<text text-anchor="start" x="-107.125" y="208.2" font-family="Times,serif" font-size="14.00">validate_to_do</text>
<text text-anchor="start" x="-107.125" y="222.2" font-family="Times,serif" font-size="14.00">validate_values</text>
</g>
<!-- RequestsController -->
<g id="node7" class="node"><title>RequestsController</title>
<path fill="none" stroke="black" d="M-287.431,-300C-287.431,-300 -144.569,-300 -144.569,-300 -138.569,-300 -132.569,-306 -132.569,-312 -132.569,-312 -132.569,-602 -132.569,-602 -132.569,-608 -138.569,-614 -144.569,-614 -144.569,-614 -287.431,-614 -287.431,-614 -293.431,-614 -299.431,-608 -299.431,-602 -299.431,-602 -299.431,-312 -299.431,-312 -299.431,-306 -293.431,-300 -287.431,-300"/>
<text text-anchor="middle" x="-216" y="-598.8" font-family="Times,serif" font-size="14.00">RequestsController</text>
<polyline fill="none" stroke="black" points="-299.431,-592 -132.569,-592 "/>
<text text-anchor="start" x="-291.431" y="-576.8" font-family="Times,serif" font-size="14.00">accept</text>
<text text-anchor="start" x="-291.431" y="-562.8" font-family="Times,serif" font-size="14.00">accept_modification</text>
<text text-anchor="start" x="-291.431" y="-548.8" font-family="Times,serif" font-size="14.00">create</text>
<text text-anchor="start" x="-291.431" y="-534.8" font-family="Times,serif" font-size="14.00">decline</text>
<text text-anchor="start" x="-291.431" y="-520.8" font-family="Times,serif" font-size="14.00">decline_modification</text>
<text text-anchor="start" x="-291.431" y="-506.8" font-family="Times,serif" font-size="14.00">destroy</text>
<text text-anchor="start" x="-291.431" y="-492.8" font-family="Times,serif" font-size="14.00">edit</text>
<text text-anchor="start" x="-291.431" y="-478.8" font-family="Times,serif" font-size="14.00">get_my_requests</text>
<text text-anchor="start" x="-291.431" y="-464.8" font-family="Times,serif" font-size="14.00">index</text>
<text text-anchor="start" x="-291.431" y="-450.8" font-family="Times,serif" font-size="14.00">modify</text>
<text text-anchor="start" x="-291.431" y="-436.8" font-family="Times,serif" font-size="14.00">new</text>
<text text-anchor="start" x="-291.431" y="-422.8" font-family="Times,serif" font-size="14.00">remove</text>
<text text-anchor="start" x="-291.431" y="-408.8" font-family="Times,serif" font-size="14.00">send_modification_request</text>
<text text-anchor="start" x="-291.431" y="-394.8" font-family="Times,serif" font-size="14.00">show</text>
<text text-anchor="start" x="-291.431" y="-380.8" font-family="Times,serif" font-size="14.00">update</text>
<polyline fill="none" stroke="black" points="-299.431,-374 -132.569,-374 "/>
<polyline fill="none" stroke="black" points="-299.431,-350 -132.569,-350 "/>
<text text-anchor="start" x="-291.431" y="-334.8" font-family="Times,serif" font-size="14.00">_layout</text>
<text text-anchor="start" x="-291.431" y="-320.8" font-family="Times,serif" font-size="14.00">event_params</text>
<text text-anchor="start" x="-291.431" y="-306.8" font-family="Times,serif" font-size="14.00">request_params</text>
</g>
<!-- SubscriptionController -->
<g id="node8" class="node"><title>SubscriptionController</title>
<path fill="none" stroke="black" d="M356.838,-47C356.838,-47 477.162,-47 477.162,-47 483.162,-47 489.162,-53 489.162,-59 489.162,-59 489.162,-139 489.162,-139 489.162,-145 483.162,-151 477.162,-151 477.162,-151 356.838,-151 356.838,-151 350.838,-151 344.838,-145 344.838,-139 344.838,-139 344.838,-59 344.838,-59 344.838,-53 350.838,-47 356.838,-47"/>
<text text-anchor="middle" x="417" y="-135.8" font-family="Times,serif" font-size="14.00">SubscriptionController</text>
<polyline fill="none" stroke="black" points="344.838,-129 489.162,-129 "/>
<text text-anchor="start" x="352.838" y="-113.8" font-family="Times,serif" font-size="14.00">index</text>
<text text-anchor="start" x="352.838" y="-99.8" font-family="Times,serif" font-size="14.00">manage</text>
<polyline fill="none" stroke="black" points="344.838,-93 489.162,-93 "/>
<polyline fill="none" stroke="black" points="344.838,-69 489.162,-69 "/>
<text text-anchor="start" x="352.838" y="-53.8" font-family="Times,serif" font-size="14.00">_layout</text>
</g>
<!-- TimeSlotController -->
<g id="node9" class="node"><title>TimeSlotController</title>
<path fill="none" stroke="black" d="M-79.8037,-277C-79.8037,-277 49.8037,-277 49.8037,-277 55.8037,-277 61.8037,-283 61.8037,-289 61.8037,-289 61.8037,-607 61.8037,-607 61.8037,-613 55.8037,-619 49.8037,-619 49.8037,-619 -79.8037,-619 -79.8037,-619 -85.8037,-619 -91.8037,-613 -91.8037,-607 -91.8037,-607 -91.8037,-289 -91.8037,-289 -91.8037,-283 -85.8037,-277 -79.8037,-277"/>
<text text-anchor="middle" x="-15" y="-603.8" font-family="Times,serif" font-size="14.00">TimeSlotController</text>
<polyline fill="none" stroke="black" points="-91.8037,-597 61.8037,-597 "/>
<text text-anchor="start" x="-83.8037" y="-581.8" font-family="Times,serif" font-size="14.00">add_event_block</text>
<text text-anchor="start" x="-83.8037" y="-567.8" font-family="Times,serif" font-size="14.00">assign_slots</text>
<text text-anchor="start" x="-83.8037" y="-553.8" font-family="Times,serif" font-size="14.00">assign_time_slots</text>
<text text-anchor="start" x="-83.8037" y="-539.8" font-family="Times,serif" font-size="14.00">assign_user_to_slot</text>
<text text-anchor="start" x="-83.8037" y="-525.8" font-family="Times,serif" font-size="14.00">choose_slot_preferences</text>
<text text-anchor="start" x="-83.8037" y="-511.8" font-family="Times,serif" font-size="14.00">confirm_suggested</text>
<text text-anchor="start" x="-83.8037" y="-497.8" font-family="Times,serif" font-size="14.00">create</text>
<text text-anchor="start" x="-83.8037" y="-483.8" font-family="Times,serif" font-size="14.00">destroy</text>
<text text-anchor="start" x="-83.8037" y="-469.8" font-family="Times,serif" font-size="14.00">destroy_slot</text>
<text text-anchor="start" x="-83.8037" y="-455.8" font-family="Times,serif" font-size="14.00">get_allowed_users</text>
<text text-anchor="start" x="-83.8037" y="-441.8" font-family="Times,serif" font-size="14.00">index</text>
<text text-anchor="start" x="-83.8037" y="-427.8" font-family="Times,serif" font-size="14.00">new</text>
<text text-anchor="start" x="-83.8037" y="-413.8" font-family="Times,serif" font-size="14.00">preference_based</text>
<text text-anchor="start" x="-83.8037" y="-399.8" font-family="Times,serif" font-size="14.00">scheduler</text>
<text text-anchor="start" x="-83.8037" y="-385.8" font-family="Times,serif" font-size="14.00">show_invitees</text>
<text text-anchor="start" x="-83.8037" y="-371.8" font-family="Times,serif" font-size="14.00">show_preferences</text>
<text text-anchor="start" x="-83.8037" y="-357.8" font-family="Times,serif" font-size="14.00">signup</text>
<text text-anchor="start" x="-83.8037" y="-343.8" font-family="Times,serif" font-size="14.00">suggest_schedule</text>
<polyline fill="none" stroke="black" points="-91.8037,-337 61.8037,-337 "/>
<polyline fill="none" stroke="black" points="-91.8037,-313 61.8037,-313 "/>
<text text-anchor="start" x="-83.8037" y="-297.8" font-family="Times,serif" font-size="14.00">_layout</text>
<text text-anchor="start" x="-83.8037" y="-283.8" font-family="Times,serif" font-size="14.00">event_params</text>
</g>
<!-- ToDosController -->
<g id="node10" class="node"><title>ToDosController</title>
<path fill="none" stroke="black" d="M-264.339,252C-264.339,252 -177.661,252 -177.661,252 -171.661,252 -165.661,246 -165.661,240 -165.661,240 -165.661,48 -165.661,48 -165.661,42 -171.661,36 -177.661,36 -177.661,36 -264.339,36 -264.339,36 -270.339,36 -276.339,42 -276.339,48 -276.339,48 -276.339,240 -276.339,240 -276.339,246 -270.339,252 -264.339,252"/>
<text text-anchor="middle" x="-221" y="51.2" font-family="Times,serif" font-size="14.00">ToDosController</text>
<polyline fill="none" stroke="black" points="-276.339,58 -165.661,58 "/>
<text text-anchor="start" x="-268.339" y="73.2" font-family="Times,serif" font-size="14.00">create</text>
<text text-anchor="start" x="-268.339" y="87.2" font-family="Times,serif" font-size="14.00">destroy</text>
<text text-anchor="start" x="-268.339" y="101.2" font-family="Times,serif" font-size="14.00">done</text>
<text text-anchor="start" x="-268.339" y="115.2" font-family="Times,serif" font-size="14.00">edit</text>
<text text-anchor="start" x="-268.339" y="129.2" font-family="Times,serif" font-size="14.00">get_to_do_list</text>
<text text-anchor="start" x="-268.339" y="143.2" font-family="Times,serif" font-size="14.00">index</text>
<text text-anchor="start" x="-268.339" y="157.2" font-family="Times,serif" font-size="14.00">new</text>
<text text-anchor="start" x="-268.339" y="171.2" font-family="Times,serif" font-size="14.00">update</text>
<text text-anchor="start" x="-268.339" y="185.2" font-family="Times,serif" font-size="14.00">validate_to_do</text>
<polyline fill="none" stroke="black" points="-276.339,192 -165.661,192 "/>
<polyline fill="none" stroke="black" points="-276.339,216 -165.661,216 "/>
<text text-anchor="start" x="-268.339" y="231.2" font-family="Times,serif" font-size="14.00">_layout</text>
<text text-anchor="start" x="-268.339" y="245.2" font-family="Times,serif" font-size="14.00">todo_params</text>
</g>
<!-- WelcomeController -->
<g id="node11" class="node"><title>WelcomeController</title>
<path fill="none" stroke="black" d="M356.967,-185C356.967,-185 459.033,-185 459.033,-185 465.033,-185 471.033,-191 471.033,-197 471.033,-197 471.033,-265 471.033,-265 471.033,-271 465.033,-277 459.033,-277 459.033,-277 356.967,-277 356.967,-277 350.967,-277 344.967,-271 344.967,-265 344.967,-265 344.967,-197 344.967,-197 344.967,-191 350.967,-185 356.967,-185"/>
<text text-anchor="middle" x="408" y="-261.8" font-family="Times,serif" font-size="14.00">WelcomeController</text>
<polyline fill="none" stroke="black" points="344.967,-255 471.033,-255 "/>
<polyline fill="none" stroke="black" points="344.967,-231 471.033,-231 "/>
<polyline fill="none" stroke="black" points="344.967,-207 471.033,-207 "/>
<text text-anchor="start" x="352.967" y="-191.8" font-family="Times,serif" font-size="14.00">_layout</text>
</g>
</g>
</svg>
