<?xml version="1.0" encoding="UTF-8" standalone="no"?>
<!DOCTYPE svg PUBLIC "-//W3C//DTD SVG 1.1//EN"
 "http://www.w3.org/Graphics/SVG/1.1/DTD/svg11.dtd">
<!-- Generated by graphviz version 2.38.0 (20140413.2041)
 -->
<!-- Title: models_diagram Pages: 1 -->
<svg width="821pt" height="399pt"
 viewBox="0.00 0.00 821.39 399.00" xmlns="http://www.w3.org/2000/svg" xmlns:xlink="http://www.w3.org/1999/xlink">
<g id="graph0" class="graph" transform="scale(1 1) rotate(0) translate(4 395)">
<title>models_diagram</title>
<polygon fill="white" stroke="none" points="-4,4 -4,-395 817.391,-395 817.391,4 -4,4"/>
<!-- _diagram_info -->
<g id="node1" class="node"><title>_diagram_info</title>
<text text-anchor="start" x="185.986" y="-376.6" font-family="Times,serif" font-size="13.00">Models diagram</text>
<text text-anchor="start" x="185.986" y="-363.6" font-family="Times,serif" font-size="13.00">Date: Apr 20 2015 &#45; 10:54</text>
<text text-anchor="start" x="185.986" y="-350.6" font-family="Times,serif" font-size="13.00">Migration version: 20150416040722</text>
<text text-anchor="start" x="185.986" y="-337.6" font-family="Times,serif" font-size="13.00">Generated by RailRoady 1.3.0</text>
<text text-anchor="start" x="185.986" y="-324.6" font-family="Times,serif" font-size="13.00">http://railroady.prestonlee.com</text>
</g>
<!-- Event -->
<g id="node2" class="node"><title>Event</title>
<ellipse fill="none" stroke="black" cx="433.674" cy="-354.5" rx="30.9706" ry="18"/>
<text text-anchor="middle" x="433.674" y="-350.3" font-family="Times,serif" font-size="14.00">Event</text>
</g>
<!-- RequestMap -->
<g id="node8" class="node"><title>RequestMap</title>
<ellipse fill="none" stroke="black" cx="128.674" cy="-250" rx="54.6162" ry="18"/>
<text text-anchor="middle" x="128.674" y="-245.8" font-family="Times,serif" font-size="14.00">RequestMap</text>
</g>
<!-- Event&#45;&gt;RequestMap -->
<g id="edge3" class="edge"><title>Event&#45;&gt;RequestMap</title>
<path fill="none" stroke="#c00302" d="M414.796,-332.111C408.892,-326.666 401.991,-321.4 394.674,-318 339.381,-292.305 317.809,-314.849 258.674,-300 227.086,-292.068 192.652,-278.871 167.164,-268.17"/>
<ellipse fill="none" stroke="#c00302" cx="417.934" cy="-335.202" rx="4.00002" ry="4.00002"/>
<ellipse fill="#c00302" stroke="#c00302" cx="163.235" cy="-266.501" rx="4.00002" ry="4.00002"/>
</g>
<!-- Subscription -->
<g id="node9" class="node"><title>Subscription</title>
<ellipse fill="none" stroke="black" cx="654.674" cy="-164" rx="54.6334" ry="18"/>
<text text-anchor="middle" x="654.674" y="-159.8" font-family="Times,serif" font-size="14.00">Subscription</text>
</g>
<!-- Event&#45;&gt;Subscription -->
<g id="edge1" class="edge"><title>Event&#45;&gt;Subscription</title>
<path fill="none" stroke="#ede4a7" d="M470.021,-345.159C509.148,-334.232 570.257,-311.169 603.674,-268 621.892,-244.465 636.194,-213.389 644.959,-191.55"/>
<ellipse fill="none" stroke="#ede4a7" cx="465.886" cy="-346.27" rx="4.00001" ry="4.00001"/>
<polygon fill="#ede4a7" stroke="#ede4a7" points="644.961,-191.543 652.783,-183.858 646.776,-186.884 648.59,-182.225 648.59,-182.225 648.59,-182.225 646.776,-186.884 644.397,-180.592 644.961,-191.543 644.961,-191.543"/>
</g>
<!-- TimeSlot -->
<g id="node10" class="node"><title>TimeSlot</title>
<ellipse fill="none" stroke="black" cx="770.674" cy="-164" rx="42.9353" ry="18"/>
<text text-anchor="middle" x="770.674" y="-159.8" font-family="Times,serif" font-size="14.00">TimeSlot</text>
</g>
<!-- Event&#45;&gt;TimeSlot -->
<g id="edge6" class="edge"><title>Event&#45;&gt;TimeSlot</title>
<path fill="none" stroke="#bd4d05" d="M469.597,-344.864C502.519,-336.143 552.022,-320.963 591.674,-300 651.629,-268.302 712.889,-217.217 745.906,-187.818"/>
<ellipse fill="none" stroke="#bd4d05" cx="465.472" cy="-345.936" rx="4.00001" ry="4.00001"/>
<polygon fill="#bd4d05" stroke="#bd4d05" points="746.236,-187.521 756.681,-184.182 749.955,-184.178 753.673,-180.835 753.673,-180.835 753.673,-180.835 749.955,-184.178 750.665,-177.489 746.236,-187.521 746.236,-187.521"/>
</g>
<!-- ToDo -->
<g id="node11" class="node"><title>ToDo</title>
<ellipse fill="none" stroke="black" cx="387.674" cy="-91" rx="30.2429" ry="18"/>
<text text-anchor="middle" x="387.674" y="-86.8" font-family="Times,serif" font-size="14.00">ToDo</text>
</g>
<!-- Event&#45;&gt;ToDo -->
<g id="edge4" class="edge"><title>Event&#45;&gt;ToDo</title>
<path fill="none" stroke="#e17fd9" d="M414.868,-331.952C408.965,-326.505 402.047,-321.277 394.674,-318 319.993,-284.806 292.405,-312.713 211.674,-300 145.624,-289.599 116.879,-309.777 64.6738,-268 31.7608,-241.661 33.7775,-223.16 24.6738,-182 21.2184,-166.378 14.1328,-158.037 24.6738,-146 65.7327,-99.1143 241.196,-119.228 302.674,-109 318.832,-106.312 336.615,-102.836 351.722,-99.7292"/>
<ellipse fill="none" stroke="#e17fd9" cx="418.005" cy="-335.054" rx="4.00002" ry="4.00002"/>
<ellipse fill="#e17fd9" stroke="#e17fd9" cx="355.895" cy="-98.862" rx="4.00001" ry="4.00001"/>
</g>
<!-- User -->
<g id="node12" class="node"><title>User</title>
<ellipse fill="none" stroke="black" cx="317.674" cy="-250" rx="27" ry="18"/>
<text text-anchor="middle" x="317.674" y="-245.8" font-family="Times,serif" font-size="14.00">User</text>
</g>
<!-- Event&#45;&gt;User -->
<g id="edge2" class="edge"><title>Event&#45;&gt;User</title>
<path fill="none" stroke="#8add85" d="M459.334,-333.093C473.678,-319.212 486.504,-300.758 474.674,-286 459.9,-267.57 396.097,-258.214 354.512,-253.988"/>
<polygon fill="#8add85" stroke="#8add85" points="459.234,-333.183 448.799,-336.553 455.526,-336.537 451.817,-339.891 451.817,-339.891 451.817,-339.891 455.526,-336.537 454.836,-343.229 459.234,-333.183 459.234,-333.183"/>
<polygon fill="#8add85" stroke="#8add85" points="354.416,-253.978 344.892,-248.542 349.439,-253.5 344.462,-253.021 344.462,-253.021 344.462,-253.021 349.439,-253.5 344.031,-257.501 354.416,-253.978 354.416,-253.978"/>
<text text-anchor="middle" x="510.167" y="-288.8" font-family="Times,serif" font-size="14.00">subscribers</text>
</g>
<!-- Visibility -->
<g id="node13" class="node"><title>Visibility</title>
<ellipse fill="none" stroke="black" cx="122.674" cy="-91" rx="42.9869" ry="18"/>
<text text-anchor="middle" x="122.674" y="-86.8" font-family="Times,serif" font-size="14.00">Visibility</text>
</g>
<!-- Event&#45;&gt;Visibility -->
<g id="edge5" class="edge"><title>Event&#45;&gt;Visibility</title>
<path fill="none" stroke="#9bcb2d" d="M414.949,-331.765C409.047,-326.315 402.11,-321.132 394.674,-318 332.103,-291.641 154.826,-319.106 89.6738,-300 61.7953,-291.825 49.7241,-291.523 32.6738,-268 0.544446,-223.673 -12.8571,-192.724 15.6738,-146 28.8041,-124.497 53.4503,-111.255 75.7817,-103.269"/>
<ellipse fill="none" stroke="#9bcb2d" cx="418.084" cy="-334.88" rx="4.00002" ry="4.00002"/>
<polygon fill="#9bcb2d" stroke="#9bcb2d" points="76.0033,-103.196 86.9101,-104.333 80.751,-101.628 85.4987,-100.06 85.4987,-100.06 85.4987,-100.06 80.751,-101.628 84.0873,-95.7868 76.0033,-103.196 76.0033,-103.196"/>
</g>
<!-- Group -->
<g id="node3" class="node"><title>Group</title>
<ellipse fill="none" stroke="black" cx="238.674" cy="-164" rx="32.9081" ry="18"/>
<text text-anchor="middle" x="238.674" y="-159.8" font-family="Times,serif" font-size="14.00">Group</text>
</g>
<!-- Membership -->
<g id="node4" class="node"><title>Membership</title>
<ellipse fill="none" stroke="black" cx="238.674" cy="-91" rx="54.6162" ry="18"/>
<text text-anchor="middle" x="238.674" y="-86.8" font-family="Times,serif" font-size="14.00">Membership</text>
</g>
<!-- Group&#45;&gt;Membership -->
<g id="edge7" class="edge"><title>Group&#45;&gt;Membership</title>
<path fill="none" stroke="#edd57a" d="M238.674,-137.791C238.674,-131.832 238.674,-125.45 238.674,-119.399"/>
<ellipse fill="none" stroke="#edd57a" cx="238.674" cy="-141.813" rx="4" ry="4"/>
<polygon fill="#edd57a" stroke="#edd57a" points="238.674,-119.029 243.174,-109.029 238.674,-114.029 238.674,-109.029 238.674,-109.029 238.674,-109.029 238.674,-114.029 234.174,-109.029 238.674,-119.029 238.674,-119.029"/>
</g>
<!-- Group&#45;&gt;User -->
<g id="edge8" class="edge"><title>Group&#45;&gt;User</title>
<path fill="none" stroke="#d5940f" d="M230.975,-191.826C230.262,-199.511 231.088,-207.546 235.356,-214 245.669,-229.591 264.484,-238.259 281.525,-243.066"/>
<polygon fill="#d5940f" stroke="#d5940f" points="231.015,-191.598 237.156,-182.513 231.869,-186.671 232.722,-181.745 232.722,-181.745 232.722,-181.745 231.869,-186.671 228.289,-180.976 231.015,-191.598 231.015,-191.598"/>
<polygon fill="#d5940f" stroke="#d5940f" points="281.568,-243.077 290.197,-249.843 286.422,-244.275 291.276,-245.474 291.276,-245.474 291.276,-245.474 286.422,-244.275 292.355,-241.105 281.568,-243.077 281.568,-243.077"/>
<text text-anchor="middle" x="261.332" y="-202.8" font-family="Times,serif" font-size="14.00">members</text>
</g>
<!-- Group&#45;&gt;Visibility -->
<g id="edge9" class="edge"><title>Group&#45;&gt;Visibility</title>
<path fill="none" stroke="#89d4a9" d="M210.682,-145.867C193.801,-135.535 172.24,-122.338 154.684,-111.592"/>
<ellipse fill="none" stroke="#89d4a9" cx="214.255" cy="-148.054" rx="4.00002" ry="4.00002"/>
<polygon fill="#89d4a9" stroke="#89d4a9" points="154.443,-111.445 148.263,-102.386 150.179,-108.835 145.914,-106.225 145.914,-106.225 145.914,-106.225 150.179,-108.835 143.565,-110.063 154.443,-111.445 154.443,-111.445"/>
</g>
<!-- Reminder -->
<g id="node5" class="node"><title>Reminder</title>
<ellipse fill="none" stroke="black" cx="441.674" cy="-18" rx="44.9596" ry="18"/>
<text text-anchor="middle" x="441.674" y="-13.8" font-family="Times,serif" font-size="14.00">Reminder</text>
</g>
<!-- RepetitionScheme -->
<g id="node6" class="node"><title>RepetitionScheme</title>
<ellipse fill="none" stroke="black" cx="450.674" cy="-164" rx="74.8862" ry="18"/>
<text text-anchor="middle" x="450.674" y="-159.8" font-family="Times,serif" font-size="14.00">RepetitionScheme</text>
</g>
<!-- RepetitionScheme&#45;&gt;Event -->
<g id="edge10" class="edge"><title>RepetitionScheme&#45;&gt;Event</title>
<path fill="none" stroke="#a2fc53" d="M526.469,-173.022C560.863,-178.38 596.196,-186.91 606.674,-200 610.562,-204.858 608.563,-208.071 606.674,-214 592.447,-258.649 581.523,-269.821 545.674,-300 523.316,-318.822 493.212,-332.717 469.846,-341.622"/>
<ellipse fill="none" stroke="#a2fc53" cx="522.185" cy="-172.383" rx="4.00001" ry="4.00001"/>
<polygon fill="#a2fc53" stroke="#a2fc53" points="469.673,-341.686 458.735,-340.909 464.979,-343.409 460.286,-345.133 460.286,-345.133 460.286,-345.133 464.979,-343.409 461.837,-349.357 469.673,-341.686 469.673,-341.686"/>
</g>
<!-- RepetitionScheme&#45;&gt;ToDo -->
<g id="edge12" class="edge"><title>RepetitionScheme&#45;&gt;ToDo</title>
<path fill="none" stroke="#7158ef" d="M430.341,-140.086C423.189,-132.025 415.153,-122.969 408.001,-114.908"/>
<ellipse fill="none" stroke="#7158ef" cx="433.089" cy="-143.182" rx="4.00002" ry="4.00002"/>
<polygon fill="#7158ef" stroke="#7158ef" points="407.845,-114.733 404.574,-104.266 404.527,-110.993 401.208,-107.253 401.208,-107.253 401.208,-107.253 404.527,-110.993 397.842,-110.24 407.845,-114.733 407.845,-114.733"/>
</g>
<!-- RepetitionScheme&#45;&gt;User -->
<g id="edge11" class="edge"><title>RepetitionScheme&#45;&gt;User</title>
<path fill="none" stroke="#93b959" d="M443.395,-191.71C440.055,-199.799 435.311,-208.095 428.674,-214 408.16,-232.252 378.148,-240.989 354.501,-245.169"/>
<polygon fill="#93b959" stroke="#93b959" points="443.455,-191.541 451.047,-183.628 445.131,-186.83 446.807,-182.119 446.807,-182.119 446.807,-182.119 445.131,-186.83 442.567,-180.611 443.455,-191.541 443.455,-191.541"/>
<polygon fill="#93b959" stroke="#93b959" points="354.352,-245.193 343.776,-242.296 349.413,-245.967 344.473,-246.742 344.473,-246.742 344.473,-246.742 349.413,-245.967 345.17,-251.188 354.352,-245.193 354.352,-245.193"/>
<text text-anchor="middle" x="479.719" y="-202.8" font-family="Times,serif" font-size="14.00">allowed_users</text>
</g>
<!-- Request -->
<g id="node7" class="node"><title>Request</title>
<ellipse fill="none" stroke="black" cx="72.6738" cy="-164" rx="38.6955" ry="18"/>
<text text-anchor="middle" x="72.6738" y="-159.8" font-family="Times,serif" font-size="14.00">Request</text>
</g>
<!-- RequestMap&#45;&gt;Request -->
<g id="edge13" class="edge"><title>RequestMap&#45;&gt;Request</title>
<path fill="none" stroke="#d96009" d="M103.407,-227.109C99.5036,-223.006 95.7527,-218.564 92.6738,-214 88.1004,-207.221 84.2896,-199.233 81.264,-191.696"/>
<ellipse fill="none" stroke="#d96009" cx="106.341" cy="-230.03" rx="4.00002" ry="4.00002"/>
<polygon fill="#d96009" stroke="#d96009" points="81.2153,-191.565 81.9603,-180.624 79.478,-186.876 77.7406,-182.188 77.7406,-182.188 77.7406,-182.188 79.478,-186.876 73.521,-183.751 81.2153,-191.565 81.2153,-191.565"/>
</g>
<!-- Subscription&#45;&gt;Reminder -->
<g id="edge14" class="edge"><title>Subscription&#45;&gt;Reminder</title>
<path fill="none" stroke="#fd0555" d="M624.996,-142.936C584.053,-115.256 510.733,-65.6878 470.334,-38.3762"/>
<ellipse fill="none" stroke="#fd0555" cx="628.565" cy="-145.349" rx="4.00002" ry="4.00002"/>
<ellipse fill="#fd0555" stroke="#fd0555" cx="466.98" cy="-36.1085" rx="4.00002" ry="4.00002"/>
</g>
<!-- TimeSlot&#45;&gt;Event -->
<g id="edge15" class="edge"><title>TimeSlot&#45;&gt;Event</title>
<path fill="none" stroke="#d7527a" d="M755.782,-189.09C750.398,-197.243 744.064,-206.242 737.674,-214 716.094,-240.198 711.386,-248.404 683.674,-268 617.193,-315.01 522.712,-337.935 471.022,-347.573"/>
<ellipse fill="none" stroke="#d7527a" cx="758.261" cy="-185.259" rx="4.00002" ry="4.00002"/>
<ellipse fill="#d7527a" stroke="#d7527a" cx="467.041" cy="-348.295" rx="4.00001" ry="4.00001"/>
<text text-anchor="middle" x="751.446" y="-245.8" font-family="Times,serif" font-size="14.00">slot_event</text>
</g>
<!-- ToDo&#45;&gt;Reminder -->
<g id="edge16" class="edge"><title>ToDo&#45;&gt;Reminder</title>
<path fill="none" stroke="#fb0b4a" d="M404.609,-67.7333C410.764,-59.6403 417.734,-50.4765 423.955,-42.2968"/>
<ellipse fill="none" stroke="#fb0b4a" cx="402.08" cy="-71.059" rx="4.00002" ry="4.00002"/>
<ellipse fill="#fb0b4a" stroke="#fb0b4a" cx="426.549" cy="-38.8862" rx="4.00002" ry="4.00002"/>
</g>
<!-- User&#45;&gt;Event -->
<g id="edge17" class="edge"><title>User&#45;&gt;Event</title>
<path fill="none" stroke="#08a993" d="M287.883,-264.16C270.547,-273.621 254.151,-286.959 265.501,-300 284.528,-321.862 368.433,-305.696 394.674,-318 401.357,-321.134 407.699,-325.815 413.252,-330.758"/>
<ellipse fill="none" stroke="#08a993" cx="291.734" cy="-262.182" rx="4.00002" ry="4.00002"/>
<polygon fill="#08a993" stroke="#08a993" points="413.586,-331.081 417.64,-341.27 417.178,-334.559 420.771,-338.037 420.771,-338.037 420.771,-338.037 417.178,-334.559 423.901,-334.804 413.586,-331.081 413.586,-331.081"/>
<text text-anchor="middle" x="307.26" y="-288.8" font-family="Times,serif" font-size="14.00">created_events</text>
</g>
<!-- User&#45;&gt;Event -->
<g id="edge20" class="edge"><title>User&#45;&gt;Event</title>
<path fill="none" stroke="#4dec09" d="M338.769,-273.169C347.501,-281.9 357.932,-291.783 368.032,-300 379.117,-309.018 383.44,-309.167 394.674,-318 400.187,-322.335 405.892,-327.253 411.181,-332.019"/>
<polygon fill="#4dec09" stroke="#4dec09" points="338.597,-272.993 334.794,-262.708 335.091,-269.428 331.585,-265.863 331.585,-265.863 331.585,-265.863 335.091,-269.428 328.377,-269.018 338.597,-272.993 338.597,-272.993"/>
<polygon fill="#4dec09" stroke="#4dec09" points="411.2,-332.036 415.515,-342.117 414.88,-335.42 418.561,-338.804 418.561,-338.804 418.561,-338.804 414.88,-335.42 421.607,-335.492 411.2,-332.036 411.2,-332.036"/>
<text text-anchor="middle" x="419.995" y="-288.8" font-family="Times,serif" font-size="14.00">subscribed_events</text>
</g>
<!-- User&#45;&gt;Group -->
<g id="edge23" class="edge"><title>User&#45;&gt;Group</title>
<path fill="none" stroke="#a0e747" d="M283.105,-245.076C263.335,-240.861 240.07,-232.121 227.674,-214 222.984,-207.145 223.308,-198.606 225.564,-190.586"/>
<ellipse fill="none" stroke="#a0e747" cx="287.11" cy="-245.832" rx="4.00001" ry="4.00001"/>
<polygon fill="#a0e747" stroke="#a0e747" points="225.567,-190.577 233.282,-182.783 227.317,-185.893 229.066,-181.209 229.066,-181.209 229.066,-181.209 227.317,-185.893 224.85,-179.634 225.567,-190.577 225.567,-190.577"/>
</g>
<!-- User&#45;&gt;Membership -->
<g id="edge22" class="edge"><title>User&#45;&gt;Membership</title>
<path fill="none" stroke="#296ae0" d="M283.537,-242.937C252.142,-235.154 208.698,-218.072 196.674,-182 191.614,-166.821 191.481,-161.134 196.674,-146 200.451,-134.991 207.491,-124.497 214.743,-115.737"/>
<ellipse fill="none" stroke="#296ae0" cx="287.736" cy="-243.907" rx="4.00001" ry="4.00001"/>
<polygon fill="#296ae0" stroke="#296ae0" points="214.761,-115.717 224.75,-111.191 218.068,-111.966 221.374,-108.215 221.374,-108.215 221.374,-108.215 218.068,-111.966 217.999,-105.24 214.761,-115.717 214.761,-115.717"/>
</g>
<!-- User&#45;&gt;RepetitionScheme -->
<g id="edge18" class="edge"><title>User&#45;&gt;RepetitionScheme</title>
<path fill="none" stroke="#1dc98f" d="M319.748,-221.873C321.587,-213.959 324.851,-205.871 330.57,-200 342.179,-188.083 357.594,-180.164 373.498,-174.917"/>
<polygon fill="#1dc98f" stroke="#1dc98f" points="319.708,-222.11 313.626,-231.235 318.887,-227.042 318.065,-231.974 318.065,-231.974 318.065,-231.974 318.887,-227.042 322.504,-232.714 319.708,-222.11 319.708,-222.11"/>
<polygon fill="#1dc98f" stroke="#1dc98f" points="373.844,-174.815 384.708,-176.3 378.639,-173.4 383.434,-171.984 383.434,-171.984 383.434,-171.984 378.639,-173.4 382.16,-167.668 373.844,-174.815 373.844,-174.815"/>
<text text-anchor="middle" x="377.726" y="-202.8" font-family="Times,serif" font-size="14.00">allowed_signups</text>
</g>
<!-- User&#45;&gt;RepetitionScheme -->
<g id="edge21" class="edge"><title>User&#45;&gt;RepetitionScheme</title>
<path fill="none" stroke="#5d3b25" d="M352.976,-248.278C405.985,-246.364 502.235,-239.388 523.674,-214 534.408,-201.288 522.767,-190.518 505.859,-182.341"/>
<ellipse fill="none" stroke="#5d3b25" cx="348.855" cy="-248.413" rx="4" ry="4"/>
<polygon fill="#5d3b25" stroke="#5d3b25" points="505.79,-182.311 498.431,-174.181 501.209,-180.307 496.628,-178.304 496.628,-178.304 496.628,-178.304 501.209,-180.307 494.825,-182.427 505.79,-182.311 505.79,-182.311"/>
<text text-anchor="middle" x="565.001" y="-202.8" font-family="Times,serif" font-size="14.00">slot_schemes</text>
</g>
<!-- User&#45;&gt;Request -->
<g id="edge26" class="edge"><title>User&#45;&gt;Request</title>
<path fill="none" stroke="#d1b39a" d="M282.813,-245.014C235.21,-239.171 152.696,-227.498 125.674,-214 113.412,-207.875 101.954,-198.04 92.8499,-188.782"/>
<ellipse fill="none" stroke="#d1b39a" cx="287.019" cy="-245.523" rx="4.00001" ry="4.00001"/>
<polygon fill="#d1b39a" stroke="#d1b39a" points="92.6222,-188.539 89.077,-178.162 89.2065,-184.887 85.7907,-181.236 85.7907,-181.236 85.7907,-181.236 89.2065,-184.887 82.5044,-184.31 92.6222,-188.539 92.6222,-188.539"/>
</g>
<!-- User&#45;&gt;Subscription -->
<g id="edge19" class="edge"><title>User&#45;&gt;Subscription</title>
<path fill="none" stroke="#572a34" d="M352.875,-247.637C419.83,-244.575 562.769,-235.649 606.674,-214 618.074,-208.379 628.312,-198.927 636.375,-189.816"/>
<ellipse fill="none" stroke="#572a34" cx="348.711" cy="-247.822" rx="4" ry="4"/>
<polygon fill="#572a34" stroke="#572a34" points="636.48,-189.69 646.335,-184.88 639.678,-185.846 642.875,-182.002 642.875,-182.002 642.875,-182.002 639.678,-185.846 639.416,-179.124 636.48,-189.69 636.48,-189.69"/>
</g>
<!-- User&#45;&gt;TimeSlot -->
<g id="edge27" class="edge"><title>User&#45;&gt;TimeSlot</title>
<path fill="none" stroke="#b526f8" d="M352.855,-247.605C411.083,-244.73 530.879,-236.413 629.674,-214 665.168,-205.948 704.153,-191.983 732.117,-181.017"/>
<ellipse fill="none" stroke="#b526f8" cx="348.716" cy="-247.801" rx="4" ry="4"/>
<polygon fill="#b526f8" stroke="#b526f8" points="732.232,-180.971 743.187,-181.459 736.878,-179.125 741.525,-177.278 741.525,-177.278 741.525,-177.278 736.878,-179.125 739.863,-173.096 732.232,-180.971 732.232,-180.971"/>
</g>
<!-- User&#45;&gt;ToDo -->
<g id="edge24" class="edge"><title>User&#45;&gt;ToDo</title>
<path fill="none" stroke="#9566ce" d="M315.581,-223.794C315.625,-216.024 316.389,-207.534 318.674,-200 328.436,-167.812 350.729,-135.979 367.35,-115.305"/>
<ellipse fill="none" stroke="#9566ce" cx="315.681" cy="-227.864" rx="4" ry="4"/>
<polygon fill="#9566ce" stroke="#9566ce" points="367.487,-115.139 377.322,-110.287 370.669,-111.281 373.85,-107.424 373.85,-107.424 373.85,-107.424 370.669,-111.281 370.378,-104.561 367.487,-115.139 367.487,-115.139"/>
</g>
<!-- User&#45;&gt;Visibility -->
<g id="edge25" class="edge"><title>User&#45;&gt;Visibility</title>
<path fill="none" stroke="#b8ae07" d="M282.738,-244.591C258.61,-240.124 226.825,-231.283 203.674,-214 170.288,-189.076 146.453,-146.069 133.622,-118.343"/>
<ellipse fill="none" stroke="#b8ae07" cx="286.983" cy="-245.319" rx="4.00001" ry="4.00001"/>
<polygon fill="#b8ae07" stroke="#b8ae07" points="133.475,-118.012 133.505,-107.046 131.435,-113.447 129.396,-108.882 129.396,-108.882 129.396,-108.882 131.435,-113.447 125.287,-110.717 133.475,-118.012 133.475,-118.012"/>
</g>
</g>
</svg>
