<?xml version="1.0" encoding="UTF-8" standalone="no"?>
<!DOCTYPE svg PUBLIC "-//W3C//DTD SVG 1.1//EN"
 "http://www.w3.org/Graphics/SVG/1.1/DTD/svg11.dtd">
<!-- Generated by graphviz version 2.38.0 (20140413.2041)
 -->
<!-- Title: models_diagram Pages: 1 -->
<svg width="1161pt" height="1247pt"
 viewBox="0.00 0.00 1160.86 1247.00" xmlns="http://www.w3.org/2000/svg" xmlns:xlink="http://www.w3.org/1999/xlink">
<g id="graph0" class="graph" transform="scale(1 1) rotate(0) translate(4 1243)">
<title>models_diagram</title>
<polygon fill="white" stroke="none" points="-4,4 -4,-1243 1156.86,-1243 1156.86,4 -4,4"/>
<!-- _diagram_info -->
<g id="node1" class="node"><title>_diagram_info</title>
<text text-anchor="start" x="329.327" y="-1154.6" font-family="Times,serif" font-size="13.00">Models diagram</text>
<text text-anchor="start" x="329.327" y="-1141.6" font-family="Times,serif" font-size="13.00">Date: Apr 20 2015 &#45; 10:54</text>
<text text-anchor="start" x="329.327" y="-1128.6" font-family="Times,serif" font-size="13.00">Migration version: 20150416040722</text>
<text text-anchor="start" x="329.327" y="-1115.6" font-family="Times,serif" font-size="13.00">Generated by RailRoady 1.3.0</text>
<text text-anchor="start" x="329.327" y="-1102.6" font-family="Times,serif" font-size="13.00">http://railroady.prestonlee.com</text>
</g>
<!-- Event -->
<g id="node2" class="node"><title>Event</title>
<path fill="none" stroke="black" d="M558.627,-1026.5C558.627,-1026.5 717.403,-1026.5 717.403,-1026.5 723.403,-1026.5 729.403,-1032.5 729.403,-1038.5 729.403,-1038.5 729.403,-1226.5 729.403,-1226.5 729.403,-1232.5 723.403,-1238.5 717.403,-1238.5 717.403,-1238.5 558.627,-1238.5 558.627,-1238.5 552.627,-1238.5 546.627,-1232.5 546.627,-1226.5 546.627,-1226.5 546.627,-1038.5 546.627,-1038.5 546.627,-1032.5 552.627,-1026.5 558.627,-1026.5"/>
<text text-anchor="middle" x="638.015" y="-1223.3" font-family="Times,serif" font-size="14.00">Event</text>
<polyline fill="none" stroke="black" points="546.627,-1216.5 729.403,-1216.5 "/>
<text text-anchor="start" x="554.627" y="-1201.3" font-family="Times,serif" font-size="14.00">id :integer</text>
<text text-anchor="start" x="554.627" y="-1187.3" font-family="Times,serif" font-size="14.00">title :string</text>
<text text-anchor="start" x="554.627" y="-1173.3" font-family="Times,serif" font-size="14.00">description :text</text>
<text text-anchor="start" x="554.627" y="-1159.3" font-family="Times,serif" font-size="14.00">start_time :datetime</text>
<text text-anchor="start" x="554.627" y="-1145.3" font-family="Times,serif" font-size="14.00">end_time :datetime</text>
<text text-anchor="start" x="554.627" y="-1131.3" font-family="Times,serif" font-size="14.00">repetition_scheme_id :integer</text>
<text text-anchor="start" x="554.627" y="-1117.3" font-family="Times,serif" font-size="14.00">created_at :datetime</text>
<text text-anchor="start" x="554.627" y="-1103.3" font-family="Times,serif" font-size="14.00">updated_at :datetime</text>
<text text-anchor="start" x="554.627" y="-1089.3" font-family="Times,serif" font-size="14.00">creator_id :integer</text>
<text text-anchor="start" x="554.627" y="-1075.3" font-family="Times,serif" font-size="14.00">event_type :integer</text>
<text text-anchor="start" x="554.627" y="-1061.3" font-family="Times,serif" font-size="14.00">to_do_id :integer</text>
<text text-anchor="start" x="554.627" y="-1047.3" font-family="Times,serif" font-size="14.00">request_map_id :integer</text>
<text text-anchor="start" x="554.627" y="-1033.3" font-family="Times,serif" font-size="14.00">respective_slot_id :integer</text>
</g>
<!-- RequestMap -->
<g id="node8" class="node"><title>RequestMap</title>
<path fill="none" stroke="black" d="M202.509,-812.5C202.509,-812.5 311.52,-812.5 311.52,-812.5 317.52,-812.5 323.52,-818.5 323.52,-824.5 323.52,-824.5 323.52,-886.5 323.52,-886.5 323.52,-892.5 317.52,-898.5 311.52,-898.5 311.52,-898.5 202.509,-898.5 202.509,-898.5 196.509,-898.5 190.509,-892.5 190.509,-886.5 190.509,-886.5 190.509,-824.5 190.509,-824.5 190.509,-818.5 196.509,-812.5 202.509,-812.5"/>
<text text-anchor="middle" x="257.015" y="-883.3" font-family="Times,serif" font-size="14.00">RequestMap</text>
<polyline fill="none" stroke="black" points="190.509,-876.5 323.52,-876.5 "/>
<text text-anchor="start" x="198.509" y="-861.3" font-family="Times,serif" font-size="14.00">id :integer</text>
<text text-anchor="start" x="198.509" y="-847.3" font-family="Times,serif" font-size="14.00">event_id :integer</text>
<text text-anchor="start" x="198.509" y="-833.3" font-family="Times,serif" font-size="14.00">created_at :datetime</text>
<text text-anchor="start" x="198.509" y="-819.3" font-family="Times,serif" font-size="14.00">updated_at :datetime</text>
</g>
<!-- Event&#45;&gt;RequestMap -->
<g id="edge3" class="edge"><title>Event&#45;&gt;RequestMap</title>
<path fill="none" stroke="#2f6c3d" d="M539.613,-1026.93C539.082,-1026.61 538.549,-1026.31 538.015,-1026 507.13,-1008.34 492.747,-1021.94 460.015,-1008 401.833,-983.218 344.959,-938.472 306.284,-904.01"/>
<ellipse fill="none" stroke="#2f6c3d" cx="543.065" cy="-1029.08" rx="4.00002" ry="4.00002"/>
<ellipse fill="#2f6c3d" stroke="#2f6c3d" cx="303.211" cy="-901.247" rx="4.00002" ry="4.00002"/>
</g>
<!-- Subscription -->
<g id="node9" class="node"><title>Subscription</title>
<path fill="none" stroke="black" d="M784.62,-521.5C784.62,-521.5 985.41,-521.5 985.41,-521.5 991.41,-521.5 997.41,-527.5 997.41,-533.5 997.41,-533.5 997.41,-665.5 997.41,-665.5 997.41,-671.5 991.41,-677.5 985.41,-677.5 985.41,-677.5 784.62,-677.5 784.62,-677.5 778.62,-677.5 772.62,-671.5 772.62,-665.5 772.62,-665.5 772.62,-533.5 772.62,-533.5 772.62,-527.5 778.62,-521.5 784.62,-521.5"/>
<text text-anchor="middle" x="885.015" y="-662.3" font-family="Times,serif" font-size="14.00">Subscription</text>
<polyline fill="none" stroke="black" points="772.62,-655.5 997.41,-655.5 "/>
<text text-anchor="start" x="780.62" y="-640.3" font-family="Times,serif" font-size="14.00">id :integer</text>
<text text-anchor="start" x="780.62" y="-626.3" font-family="Times,serif" font-size="14.00">subscriber_id :integer</text>
<text text-anchor="start" x="780.62" y="-612.3" font-family="Times,serif" font-size="14.00">subscribed_event_id :integer</text>
<text text-anchor="start" x="780.62" y="-598.3" font-family="Times,serif" font-size="14.00">has_email_notification :boolean</text>
<text text-anchor="start" x="780.62" y="-584.3" font-family="Times,serif" font-size="14.00">visibility :integer</text>
<text text-anchor="start" x="780.62" y="-570.3" font-family="Times,serif" font-size="14.00">email_notification_time_unit :integer</text>
<text text-anchor="start" x="780.62" y="-556.3" font-family="Times,serif" font-size="14.00">created_at :datetime</text>
<text text-anchor="start" x="780.62" y="-542.3" font-family="Times,serif" font-size="14.00">updated_at :datetime</text>
<text text-anchor="start" x="780.62" y="-528.3" font-family="Times,serif" font-size="14.00">reminder_id :integer</text>
</g>
<!-- Event&#45;&gt;Subscription -->
<g id="edge1" class="edge"><title>Event&#45;&gt;Subscription</title>
<path fill="none" stroke="#d290ec" d="M735.625,-1053.53C758.763,-1030.76 781.265,-1004.3 797.015,-976 847.44,-885.385 869.061,-766.976 878.274,-687.568"/>
<ellipse fill="none" stroke="#d290ec" cx="732.606" cy="-1056.46" rx="4.00002" ry="4.00002"/>
<polygon fill="#d290ec" stroke="#d290ec" points="878.277,-687.537 883.861,-678.099 878.833,-682.568 879.389,-677.599 879.389,-677.599 879.389,-677.599 878.833,-682.568 874.917,-677.099 878.277,-687.537 878.277,-687.537"/>
</g>
<!-- TimeSlot -->
<g id="node10" class="node"><title>TimeSlot</title>
<path fill="none" stroke="black" d="M1027.17,-521.5C1027.17,-521.5 1140.86,-521.5 1140.86,-521.5 1146.86,-521.5 1152.86,-527.5 1152.86,-533.5 1152.86,-533.5 1152.86,-665.5 1152.86,-665.5 1152.86,-671.5 1146.86,-677.5 1140.86,-677.5 1140.86,-677.5 1027.17,-677.5 1027.17,-677.5 1021.17,-677.5 1015.17,-671.5 1015.17,-665.5 1015.17,-665.5 1015.17,-533.5 1015.17,-533.5 1015.17,-527.5 1021.17,-521.5 1027.17,-521.5"/>
<text text-anchor="middle" x="1084.01" y="-662.3" font-family="Times,serif" font-size="14.00">TimeSlot</text>
<polyline fill="none" stroke="black" points="1015.17,-655.5 1152.86,-655.5 "/>
<text text-anchor="start" x="1023.17" y="-640.3" font-family="Times,serif" font-size="14.00">id :integer</text>
<text text-anchor="start" x="1023.17" y="-626.3" font-family="Times,serif" font-size="14.00">user_id :integer</text>
<text text-anchor="start" x="1023.17" y="-612.3" font-family="Times,serif" font-size="14.00">event_id :integer</text>
<text text-anchor="start" x="1023.17" y="-598.3" font-family="Times,serif" font-size="14.00">start_time :datetime</text>
<text text-anchor="start" x="1023.17" y="-584.3" font-family="Times,serif" font-size="14.00">duration :integer</text>
<text text-anchor="start" x="1023.17" y="-570.3" font-family="Times,serif" font-size="14.00">created_at :datetime</text>
<text text-anchor="start" x="1023.17" y="-556.3" font-family="Times,serif" font-size="14.00">updated_at :datetime</text>
<text text-anchor="start" x="1023.17" y="-542.3" font-family="Times,serif" font-size="14.00">slot_event_id :integer</text>
<text text-anchor="start" x="1023.17" y="-528.3" font-family="Times,serif" font-size="14.00">preference :integer</text>
</g>
<!-- Event&#45;&gt;TimeSlot -->
<g id="edge6" class="edge"><title>Event&#45;&gt;TimeSlot</title>
<path fill="none" stroke="#9f01f6" d="M736.505,-1069.99C773.969,-1043.8 815.434,-1011.17 848.015,-976 929.769,-887.76 999.633,-767.373 1041.67,-686.939"/>
<ellipse fill="none" stroke="#9f01f6" cx="732.847" cy="-1072.53" rx="4.00002" ry="4.00002"/>
<polygon fill="#9f01f6" stroke="#9f01f6" points="1041.8,-686.696 1050.4,-679.896 1044.1,-682.259 1046.41,-677.822 1046.41,-677.822 1046.41,-677.822 1044.1,-682.259 1042.41,-675.747 1041.8,-686.696 1041.8,-686.696"/>
</g>
<!-- ToDo -->
<g id="node11" class="node"><title>ToDo</title>
<path fill="none" stroke="black" d="M539.871,-180.5C539.871,-180.5 700.158,-180.5 700.158,-180.5 706.158,-180.5 712.158,-186.5 712.158,-192.5 712.158,-192.5 712.158,-464.5 712.158,-464.5 712.158,-470.5 706.158,-476.5 700.158,-476.5 700.158,-476.5 539.871,-476.5 539.871,-476.5 533.871,-476.5 527.871,-470.5 527.871,-464.5 527.871,-464.5 527.871,-192.5 527.871,-192.5 527.871,-186.5 533.871,-180.5 539.871,-180.5"/>
<text text-anchor="middle" x="620.015" y="-461.3" font-family="Times,serif" font-size="14.00">ToDo</text>
<polyline fill="none" stroke="black" points="527.871,-454.5 712.158,-454.5 "/>
<text text-anchor="start" x="535.871" y="-439.3" font-family="Times,serif" font-size="14.00">id :integer</text>
<text text-anchor="start" x="535.871" y="-425.3" font-family="Times,serif" font-size="14.00">done :boolean</text>
<text text-anchor="start" x="535.871" y="-411.3" font-family="Times,serif" font-size="14.00">event_id :integer</text>
<text text-anchor="start" x="535.871" y="-397.3" font-family="Times,serif" font-size="14.00">position :integer</text>
<text text-anchor="start" x="535.871" y="-383.3" font-family="Times,serif" font-size="14.00">created_at :datetime</text>
<text text-anchor="start" x="535.871" y="-369.3" font-family="Times,serif" font-size="14.00">updated_at :datetime</text>
<text text-anchor="start" x="535.871" y="-355.3" font-family="Times,serif" font-size="14.00">recurrence :integer</text>
<text text-anchor="start" x="535.871" y="-341.3" font-family="Times,serif" font-size="14.00">title :string</text>
<text text-anchor="start" x="535.871" y="-327.3" font-family="Times,serif" font-size="14.00">description :string</text>
<text text-anchor="start" x="535.871" y="-313.3" font-family="Times,serif" font-size="14.00">creator_id :integer</text>
<text text-anchor="start" x="535.871" y="-299.3" font-family="Times,serif" font-size="14.00">next_reschedule :datetime</text>
<text text-anchor="start" x="535.871" y="-285.3" font-family="Times,serif" font-size="14.00">reminder_id :integer</text>
<text text-anchor="start" x="535.871" y="-271.3" font-family="Times,serif" font-size="14.00">duration :integer</text>
<text text-anchor="start" x="535.871" y="-257.3" font-family="Times,serif" font-size="14.00">expiration :datetime</text>
<text text-anchor="start" x="535.871" y="-243.3" font-family="Times,serif" font-size="14.00">job_id :integer</text>
<text text-anchor="start" x="535.871" y="-229.3" font-family="Times,serif" font-size="14.00">escalation_prior :integer</text>
<text text-anchor="start" x="535.871" y="-215.3" font-family="Times,serif" font-size="14.00">escalation_recurrence :integer</text>
<text text-anchor="start" x="535.871" y="-201.3" font-family="Times,serif" font-size="14.00">escalation_step :integer</text>
<text text-anchor="start" x="535.871" y="-187.3" font-family="Times,serif" font-size="14.00">repetition_scheme_id :integer</text>
</g>
<!-- Event&#45;&gt;ToDo -->
<g id="edge4" class="edge"><title>Event&#45;&gt;ToDo</title>
<path fill="none" stroke="#a25e48" d="M539.327,-1026.69C538.89,-1026.45 538.453,-1026.23 538.015,-1026 466.8,-989.317 240.424,-1029.74 181.015,-976 103.982,-906.32 40.0482,-590.773 110.015,-514 169.847,-448.348 430.364,-520.132 508.015,-477 512.534,-474.49 516.927,-471.713 521.193,-468.713"/>
<ellipse fill="none" stroke="#a25e48" cx="542.839" cy="-1028.68" rx="4.00002" ry="4.00002"/>
<ellipse fill="#a25e48" stroke="#a25e48" cx="524.577" cy="-466.204" rx="4.00002" ry="4.00002"/>
</g>
<!-- User -->
<g id="node12" class="node"><title>User</title>
<path fill="none" stroke="black" d="M431.737,-735.5C431.737,-735.5 612.293,-735.5 612.293,-735.5 618.293,-735.5 624.293,-741.5 624.293,-747.5 624.293,-747.5 624.293,-963.5 624.293,-963.5 624.293,-969.5 618.293,-975.5 612.293,-975.5 612.293,-975.5 431.737,-975.5 431.737,-975.5 425.737,-975.5 419.737,-969.5 419.737,-963.5 419.737,-963.5 419.737,-747.5 419.737,-747.5 419.737,-741.5 425.737,-735.5 431.737,-735.5"/>
<text text-anchor="middle" x="522.015" y="-960.3" font-family="Times,serif" font-size="14.00">User</text>
<polyline fill="none" stroke="black" points="419.737,-953.5 624.293,-953.5 "/>
<text text-anchor="start" x="427.737" y="-938.3" font-family="Times,serif" font-size="14.00">id :integer</text>
<text text-anchor="start" x="427.737" y="-924.3" font-family="Times,serif" font-size="14.00">username :string</text>
<text text-anchor="start" x="427.737" y="-910.3" font-family="Times,serif" font-size="14.00">email :string</text>
<text text-anchor="start" x="427.737" y="-896.3" font-family="Times,serif" font-size="14.00">encrypted_password :string</text>
<text text-anchor="start" x="427.737" y="-882.3" font-family="Times,serif" font-size="14.00">reset_password_token :string</text>
<text text-anchor="start" x="427.737" y="-868.3" font-family="Times,serif" font-size="14.00">reset_password_sent_at :datetime</text>
<text text-anchor="start" x="427.737" y="-854.3" font-family="Times,serif" font-size="14.00">remember_created_at :datetime</text>
<text text-anchor="start" x="427.737" y="-840.3" font-family="Times,serif" font-size="14.00">sign_in_count :integer</text>
<text text-anchor="start" x="427.737" y="-826.3" font-family="Times,serif" font-size="14.00">current_sign_in_at :datetime</text>
<text text-anchor="start" x="427.737" y="-812.3" font-family="Times,serif" font-size="14.00">last_sign_in_at :datetime</text>
<text text-anchor="start" x="427.737" y="-798.3" font-family="Times,serif" font-size="14.00">current_sign_in_ip :inet</text>
<text text-anchor="start" x="427.737" y="-784.3" font-family="Times,serif" font-size="14.00">last_sign_in_ip :inet</text>
<text text-anchor="start" x="427.737" y="-770.3" font-family="Times,serif" font-size="14.00">created_at :datetime</text>
<text text-anchor="start" x="427.737" y="-756.3" font-family="Times,serif" font-size="14.00">updated_at :datetime</text>
<text text-anchor="start" x="427.737" y="-742.3" font-family="Times,serif" font-size="14.00">name :string</text>
</g>
<!-- Event&#45;&gt;User -->
<g id="edge2" class="edge"><title>Event&#45;&gt;User</title>
<path fill="none" stroke="#97ceb4" d="M684.791,-1016.32C684.094,-1008.68 682.27,-1001.18 679.015,-994 668.2,-970.153 650.98,-948.813 631.833,-930.464"/>
<polygon fill="#97ceb4" stroke="#97ceb4" points="684.794,-1016.43 680.587,-1026.55 684.94,-1021.43 685.085,-1026.42 685.085,-1026.42 685.085,-1026.42 684.94,-1021.43 689.583,-1026.29 684.794,-1016.43 684.794,-1016.43"/>
<polygon fill="#97ceb4" stroke="#97ceb4" points="631.741,-930.379 627.469,-920.279 628.075,-926.979 624.409,-923.579 624.409,-923.579 624.409,-923.579 628.075,-926.979 621.349,-926.878 631.741,-930.379 631.741,-930.379"/>
<text text-anchor="middle" x="713.508" y="-996.8" font-family="Times,serif" font-size="14.00">subscribers</text>
</g>
<!-- Visibility -->
<g id="node13" class="node"><title>Visibility</title>
<path fill="none" stroke="black" d="M226.509,-257.5C226.509,-257.5 335.52,-257.5 335.52,-257.5 341.52,-257.5 347.52,-263.5 347.52,-269.5 347.52,-269.5 347.52,-387.5 347.52,-387.5 347.52,-393.5 341.52,-399.5 335.52,-399.5 335.52,-399.5 226.509,-399.5 226.509,-399.5 220.509,-399.5 214.509,-393.5 214.509,-387.5 214.509,-387.5 214.509,-269.5 214.509,-269.5 214.509,-263.5 220.509,-257.5 226.509,-257.5"/>
<text text-anchor="middle" x="281.015" y="-384.3" font-family="Times,serif" font-size="14.00">Visibility</text>
<polyline fill="none" stroke="black" points="214.509,-377.5 347.52,-377.5 "/>
<text text-anchor="start" x="222.509" y="-362.3" font-family="Times,serif" font-size="14.00">id :integer</text>
<text text-anchor="start" x="222.509" y="-348.3" font-family="Times,serif" font-size="14.00">status :integer</text>
<text text-anchor="start" x="222.509" y="-334.3" font-family="Times,serif" font-size="14.00">event_id :integer</text>
<text text-anchor="start" x="222.509" y="-320.3" font-family="Times,serif" font-size="14.00">position :integer</text>
<text text-anchor="start" x="222.509" y="-306.3" font-family="Times,serif" font-size="14.00">user_id :integer</text>
<text text-anchor="start" x="222.509" y="-292.3" font-family="Times,serif" font-size="14.00">group_id :integer</text>
<text text-anchor="start" x="222.509" y="-278.3" font-family="Times,serif" font-size="14.00">created_at :datetime</text>
<text text-anchor="start" x="222.509" y="-264.3" font-family="Times,serif" font-size="14.00">updated_at :datetime</text>
</g>
<!-- Event&#45;&gt;Visibility -->
<g id="edge5" class="edge"><title>Event&#45;&gt;Visibility</title>
<path fill="none" stroke="#37f800" d="M539.354,-1026.63C538.908,-1026.42 538.462,-1026.21 538.015,-1026 446.115,-983.436 148.569,-1054.85 85.0148,-976 -43.8611,-816.098 -7.53859,-701.608 76.0148,-514 102.615,-454.272 159.165,-405.769 206.145,-373.509"/>
<ellipse fill="none" stroke="#37f800" cx="542.926" cy="-1028.49" rx="4.00002" ry="4.00002"/>
<polygon fill="#37f800" stroke="#37f800" points="206.205,-373.468 217.012,-371.605 210.35,-370.672 214.495,-367.875 214.495,-367.875 214.495,-367.875 210.35,-370.672 211.978,-364.145 206.205,-373.468 206.205,-373.468"/>
</g>
<!-- Group -->
<g id="node3" class="node"><title>Group</title>
<path fill="none" stroke="black" d="M377.509,-542.5C377.509,-542.5 486.52,-542.5 486.52,-542.5 492.52,-542.5 498.52,-548.5 498.52,-554.5 498.52,-554.5 498.52,-644.5 498.52,-644.5 498.52,-650.5 492.52,-656.5 486.52,-656.5 486.52,-656.5 377.509,-656.5 377.509,-656.5 371.509,-656.5 365.509,-650.5 365.509,-644.5 365.509,-644.5 365.509,-554.5 365.509,-554.5 365.509,-548.5 371.509,-542.5 377.509,-542.5"/>
<text text-anchor="middle" x="432.015" y="-641.3" font-family="Times,serif" font-size="14.00">Group</text>
<polyline fill="none" stroke="black" points="365.509,-634.5 498.52,-634.5 "/>
<text text-anchor="start" x="373.509" y="-619.3" font-family="Times,serif" font-size="14.00">id :integer</text>
<text text-anchor="start" x="373.509" y="-605.3" font-family="Times,serif" font-size="14.00">title :string</text>
<text text-anchor="start" x="373.509" y="-591.3" font-family="Times,serif" font-size="14.00">description :text</text>
<text text-anchor="start" x="373.509" y="-577.3" font-family="Times,serif" font-size="14.00">created_at :datetime</text>
<text text-anchor="start" x="373.509" y="-563.3" font-family="Times,serif" font-size="14.00">updated_at :datetime</text>
<text text-anchor="start" x="373.509" y="-549.3" font-family="Times,serif" font-size="14.00">owner_id :integer</text>
</g>
<!-- Membership -->
<g id="node4" class="node"><title>Membership</title>
<path fill="none" stroke="black" d="M377.509,-278.5C377.509,-278.5 486.52,-278.5 486.52,-278.5 492.52,-278.5 498.52,-284.5 498.52,-290.5 498.52,-290.5 498.52,-366.5 498.52,-366.5 498.52,-372.5 492.52,-378.5 486.52,-378.5 486.52,-378.5 377.509,-378.5 377.509,-378.5 371.509,-378.5 365.509,-372.5 365.509,-366.5 365.509,-366.5 365.509,-290.5 365.509,-290.5 365.509,-284.5 371.509,-278.5 377.509,-278.5"/>
<text text-anchor="middle" x="432.015" y="-363.3" font-family="Times,serif" font-size="14.00">Membership</text>
<polyline fill="none" stroke="black" points="365.509,-356.5 498.52,-356.5 "/>
<text text-anchor="start" x="373.509" y="-341.3" font-family="Times,serif" font-size="14.00">id :integer</text>
<text text-anchor="start" x="373.509" y="-327.3" font-family="Times,serif" font-size="14.00">member_id :integer</text>
<text text-anchor="start" x="373.509" y="-313.3" font-family="Times,serif" font-size="14.00">created_at :datetime</text>
<text text-anchor="start" x="373.509" y="-299.3" font-family="Times,serif" font-size="14.00">updated_at :datetime</text>
<text text-anchor="start" x="373.509" y="-285.3" font-family="Times,serif" font-size="14.00">group_id :integer</text>
</g>
<!-- Group&#45;&gt;Membership -->
<g id="edge7" class="edge"><title>Group&#45;&gt;Membership</title>
<path fill="none" stroke="#15e8da" d="M432.015,-534.325C432.015,-490.137 432.015,-431.859 432.015,-388.768"/>
<ellipse fill="none" stroke="#15e8da" cx="432.015" cy="-538.436" rx="4" ry="4"/>
<polygon fill="#15e8da" stroke="#15e8da" points="432.015,-388.713 436.515,-378.713 432.015,-383.713 432.015,-378.713 432.015,-378.713 432.015,-378.713 432.015,-383.713 427.515,-378.713 432.015,-388.713 432.015,-388.713"/>
</g>
<!-- Group&#45;&gt;User -->
<g id="edge8" class="edge"><title>Group&#45;&gt;User</title>
<path fill="none" stroke="#10b5c8" d="M430.973,-666.819C432.176,-683.486 434.744,-701.137 439.697,-717 440.621,-719.959 441.621,-722.92 442.687,-725.879"/>
<polygon fill="#10b5c8" stroke="#10b5c8" points="430.959,-666.578 434.883,-656.338 430.675,-661.586 430.391,-656.594 430.391,-656.594 430.391,-656.594 430.675,-661.586 425.898,-656.85 430.959,-666.578 430.959,-666.578"/>
<polygon fill="#10b5c8" stroke="#10b5c8" points="442.724,-725.976 442.111,-736.925 444.518,-730.643 446.311,-735.31 446.311,-735.31 446.311,-735.31 444.518,-730.643 450.512,-733.696 442.724,-725.976 442.724,-725.976"/>
<text text-anchor="middle" x="465.673" y="-705.8" font-family="Times,serif" font-size="14.00">members</text>
</g>
<!-- Group&#45;&gt;Visibility -->
<g id="edge9" class="edge"><title>Group&#45;&gt;Visibility</title>
<path fill="none" stroke="#50a016" d="M391.126,-535.491C379.44,-516.862 366.923,-496.288 356.015,-477 343.648,-455.132 330.978,-430.992 319.655,-408.684"/>
<ellipse fill="none" stroke="#50a016" cx="393.257" cy="-538.876" rx="4.00002" ry="4.00002"/>
<polygon fill="#50a016" stroke="#50a016" points="319.565,-408.505 319.073,-397.55 317.311,-404.042 315.056,-399.578 315.056,-399.578 315.056,-399.578 317.311,-404.042 311.04,-401.607 319.565,-408.505 319.565,-408.505"/>
</g>
<!-- Reminder -->
<g id="node5" class="node"><title>Reminder</title>
<path fill="none" stroke="black" d="M677.461,-0.5C677.461,-0.5 838.568,-0.5 838.568,-0.5 844.568,-0.5 850.568,-6.5 850.568,-12.5 850.568,-12.5 850.568,-130.5 850.568,-130.5 850.568,-136.5 844.568,-142.5 838.568,-142.5 838.568,-142.5 677.461,-142.5 677.461,-142.5 671.461,-142.5 665.461,-136.5 665.461,-130.5 665.461,-130.5 665.461,-12.5 665.461,-12.5 665.461,-6.5 671.461,-0.5 677.461,-0.5"/>
<text text-anchor="middle" x="758.015" y="-127.3" font-family="Times,serif" font-size="14.00">Reminder</text>
<polyline fill="none" stroke="black" points="665.461,-120.5 850.568,-120.5 "/>
<text text-anchor="start" x="673.461" y="-105.3" font-family="Times,serif" font-size="14.00">id :integer</text>
<text text-anchor="start" x="673.461" y="-91.3" font-family="Times,serif" font-size="14.00">recurrence :integer</text>
<text text-anchor="start" x="673.461" y="-77.3" font-family="Times,serif" font-size="14.00">next_reminder_time :datetime</text>
<text text-anchor="start" x="673.461" y="-63.3" font-family="Times,serif" font-size="14.00">to_do_id :integer</text>
<text text-anchor="start" x="673.461" y="-49.3" font-family="Times,serif" font-size="14.00">created_at :datetime</text>
<text text-anchor="start" x="673.461" y="-35.3" font-family="Times,serif" font-size="14.00">updated_at :datetime</text>
<text text-anchor="start" x="673.461" y="-21.3" font-family="Times,serif" font-size="14.00">job_id :string</text>
<text text-anchor="start" x="673.461" y="-7.3" font-family="Times,serif" font-size="14.00">subscription_id :integer</text>
</g>
<!-- RepetitionScheme -->
<g id="node6" class="node"><title>RepetitionScheme</title>
<path fill="none" stroke="black" d="M567.451,-535.5C567.451,-535.5 742.579,-535.5 742.579,-535.5 748.579,-535.5 754.579,-541.5 754.579,-547.5 754.579,-547.5 754.579,-651.5 754.579,-651.5 754.579,-657.5 748.579,-663.5 742.579,-663.5 742.579,-663.5 567.451,-663.5 567.451,-663.5 561.451,-663.5 555.451,-657.5 555.451,-651.5 555.451,-651.5 555.451,-547.5 555.451,-547.5 555.451,-541.5 561.451,-535.5 567.451,-535.5"/>
<text text-anchor="middle" x="655.015" y="-648.3" font-family="Times,serif" font-size="14.00">RepetitionScheme</text>
<polyline fill="none" stroke="black" points="555.451,-641.5 754.579,-641.5 "/>
<text text-anchor="start" x="563.451" y="-626.3" font-family="Times,serif" font-size="14.00">id :integer</text>
<text text-anchor="start" x="563.451" y="-612.3" font-family="Times,serif" font-size="14.00">created_at :datetime</text>
<text text-anchor="start" x="563.451" y="-598.3" font-family="Times,serif" font-size="14.00">updated_at :datetime</text>
<text text-anchor="start" x="563.451" y="-584.3" font-family="Times,serif" font-size="14.00">min_time_slot_duration :integer</text>
<text text-anchor="start" x="563.451" y="-570.3" font-family="Times,serif" font-size="14.00">max_time_slot_duration :integer</text>
<text text-anchor="start" x="563.451" y="-556.3" font-family="Times,serif" font-size="14.00">status :integer</text>
<text text-anchor="start" x="563.451" y="-542.3" font-family="Times,serif" font-size="14.00">creator_id :integer</text>
</g>
<!-- RepetitionScheme&#45;&gt;Event -->
<g id="edge10" class="edge"><title>RepetitionScheme&#45;&gt;Event</title>
<path fill="none" stroke="#e0d8b0" d="M738.457,-668.309C746.909,-674.222 755.513,-679.89 764.015,-685 780.724,-695.042 793.43,-686.629 804.015,-703 807.393,-708.225 804.595,-710.805 804.015,-717 791.739,-848.049 807.386,-890.028 749.015,-1008 745.025,-1016.06 740.357,-1024 735.238,-1031.71"/>
<ellipse fill="none" stroke="#e0d8b0" cx="734.978" cy="-665.837" rx="4.00002" ry="4.00002"/>
<polygon fill="#e0d8b0" stroke="#e0d8b0" points="735.2,-1031.77 725.813,-1037.44 732.358,-1035.88 729.515,-1039.99 729.515,-1039.99 729.515,-1039.99 732.358,-1035.88 733.217,-1042.55 735.2,-1031.77 735.2,-1031.77"/>
</g>
<!-- RepetitionScheme&#45;&gt;ToDo -->
<g id="edge12" class="edge"><title>RepetitionScheme&#45;&gt;ToDo</title>
<path fill="none" stroke="#44c029" d="M645.755,-527.329C644.104,-514.64 642.326,-500.976 640.503,-486.97"/>
<ellipse fill="none" stroke="#44c029" cx="646.293" cy="-531.465" rx="4.00001" ry="4.00001"/>
<polygon fill="#44c029" stroke="#44c029" points="640.46,-486.637 643.632,-476.14 639.815,-481.678 639.17,-476.72 639.17,-476.72 639.17,-476.72 639.815,-481.678 634.707,-477.301 640.46,-486.637 640.46,-486.637"/>
</g>
<!-- RepetitionScheme&#45;&gt;User -->
<g id="edge11" class="edge"><title>RepetitionScheme&#45;&gt;User</title>
<path fill="none" stroke="#8772a8" d="M646.879,-673.746C643.68,-688.486 639.224,-703.565 633.015,-717 631.555,-720.159 630.006,-723.308 628.38,-726.442"/>
<polygon fill="#8772a8" stroke="#8772a8" points="646.943,-673.427 653.312,-664.501 647.921,-668.524 648.899,-663.62 648.899,-663.62 648.899,-663.62 647.921,-668.524 644.486,-662.74 646.943,-673.427 646.943,-673.427"/>
<polygon fill="#8772a8" stroke="#8772a8" points="628.379,-726.445 619.646,-733.078 625.989,-730.837 623.599,-735.229 623.599,-735.229 623.599,-735.229 625.989,-730.837 627.552,-737.38 628.379,-726.445 628.379,-726.445"/>
<text text-anchor="middle" x="677.06" y="-705.8" font-family="Times,serif" font-size="14.00">allowed_users</text>
</g>
<!-- Request -->
<g id="node7" class="node"><title>Request</title>
<path fill="none" stroke="black" d="M131.175,-514.5C131.175,-514.5 258.855,-514.5 258.855,-514.5 264.855,-514.5 270.855,-520.5 270.855,-526.5 270.855,-526.5 270.855,-672.5 270.855,-672.5 270.855,-678.5 264.855,-684.5 258.855,-684.5 258.855,-684.5 131.175,-684.5 131.175,-684.5 125.175,-684.5 119.175,-678.5 119.175,-672.5 119.175,-672.5 119.175,-526.5 119.175,-526.5 119.175,-520.5 125.175,-514.5 131.175,-514.5"/>
<text text-anchor="middle" x="195.015" y="-669.3" font-family="Times,serif" font-size="14.00">Request</text>
<polyline fill="none" stroke="black" points="119.175,-662.5 270.855,-662.5 "/>
<text text-anchor="start" x="127.175" y="-647.3" font-family="Times,serif" font-size="14.00">id :integer</text>
<text text-anchor="start" x="127.175" y="-633.3" font-family="Times,serif" font-size="14.00">request_map_id :integer</text>
<text text-anchor="start" x="127.175" y="-619.3" font-family="Times,serif" font-size="14.00">created_at :datetime</text>
<text text-anchor="start" x="127.175" y="-605.3" font-family="Times,serif" font-size="14.00">updated_at :datetime</text>
<text text-anchor="start" x="127.175" y="-591.3" font-family="Times,serif" font-size="14.00">user_id :integer</text>
<text text-anchor="start" x="127.175" y="-577.3" font-family="Times,serif" font-size="14.00">status :integer</text>
<text text-anchor="start" x="127.175" y="-563.3" font-family="Times,serif" font-size="14.00">title :string</text>
<text text-anchor="start" x="127.175" y="-549.3" font-family="Times,serif" font-size="14.00">description :string</text>
<text text-anchor="start" x="127.175" y="-535.3" font-family="Times,serif" font-size="14.00">start_time :datetime</text>
<text text-anchor="start" x="127.175" y="-521.3" font-family="Times,serif" font-size="14.00">end_time :datetime</text>
</g>
<!-- RequestMap&#45;&gt;Request -->
<g id="edge13" class="edge"><title>RequestMap&#45;&gt;Request</title>
<path fill="none" stroke="#e566c5" d="M244.765,-804.315C237.13,-773.037 227.065,-731.804 217.987,-694.612"/>
<ellipse fill="none" stroke="#e566c5" cx="245.759" cy="-808.386" rx="4.00001" ry="4.00001"/>
<polygon fill="#e566c5" stroke="#e566c5" points="217.951,-694.463 219.951,-683.681 216.765,-689.606 215.579,-684.749 215.579,-684.749 215.579,-684.749 216.765,-689.606 211.208,-685.816 217.951,-694.463 217.951,-694.463"/>
</g>
<!-- Subscription&#45;&gt;Reminder -->
<g id="edge14" class="edge"><title>Subscription&#45;&gt;Reminder</title>
<path fill="none" stroke="#97e68a" d="M864.501,-513.536C840.286,-413.247 800.353,-247.854 776.88,-150.636"/>
<ellipse fill="none" stroke="#97e68a" cx="865.473" cy="-517.563" rx="4.00001" ry="4.00001"/>
<ellipse fill="#97e68a" stroke="#97e68a" cx="775.879" cy="-146.49" rx="4.00001" ry="4.00001"/>
</g>
<!-- TimeSlot&#45;&gt;Event -->
<g id="edge15" class="edge"><title>TimeSlot&#45;&gt;Event</title>
<path fill="none" stroke="#86760d" d="M1070.94,-685.402C1054.27,-768.274 1018.19,-893.592 944.015,-976 888.737,-1037.41 803.571,-1077.92 737.11,-1102.15"/>
<ellipse fill="none" stroke="#86760d" cx="1071.72" cy="-681.442" rx="4.00001" ry="4.00001"/>
<ellipse fill="#86760d" stroke="#86760d" cx="733.277" cy="-1103.52" rx="4.00001" ry="4.00001"/>
<text text-anchor="middle" x="1086.79" y="-851.3" font-family="Times,serif" font-size="14.00">slot_event</text>
</g>
<!-- ToDo&#45;&gt;Reminder -->
<g id="edge16" class="edge"><title>ToDo&#45;&gt;Reminder</title>
<path fill="none" stroke="#11a2b2" d="M703.639,-172.977C707.895,-165.113 712.073,-157.393 716.104,-149.944"/>
<ellipse fill="none" stroke="#11a2b2" cx="701.594" cy="-176.755" rx="4.00002" ry="4.00002"/>
<ellipse fill="#11a2b2" stroke="#11a2b2" cx="718.18" cy="-146.108" rx="4.00002" ry="4.00002"/>
</g>
<!-- User&#45;&gt;Event -->
<g id="edge17" class="edge"><title>User&#45;&gt;Event</title>
<path fill="none" stroke="#844b2c" d="M459.373,-983.997C460.807,-992.465 464.118,-1000.57 469.842,-1008 487.246,-1030.6 507.113,-1013.73 537.181,-1026.57"/>
<ellipse fill="none" stroke="#844b2c" cx="458.951" cy="-979.757" rx="4" ry="4"/>
<polygon fill="#844b2c" stroke="#844b2c" points="537.498,-1026.74 544.332,-1035.31 541.944,-1029.02 546.39,-1031.31 546.39,-1031.31 546.39,-1031.31 541.944,-1029.02 548.449,-1027.31 537.498,-1026.74 537.498,-1026.74"/>
<text text-anchor="middle" x="511.601" y="-996.8" font-family="Times,serif" font-size="14.00">created_events</text>
</g>
<!-- User&#45;&gt;Event -->
<g id="edge20" class="edge"><title>User&#45;&gt;Event</title>
<path fill="none" stroke="#5dd459" d="M563.179,-985.346C566.158,-993.062 569.231,-1000.66 572.373,-1008 573.664,-1011.01 575.001,-1014.05 576.376,-1017.11"/>
<polygon fill="#5dd459" stroke="#5dd459" points="563.139,-985.239 563.802,-974.293 561.367,-980.564 559.594,-975.889 559.594,-975.889 559.594,-975.889 561.367,-980.564 555.386,-977.484 563.139,-985.239 563.139,-985.239"/>
<polygon fill="#5dd459" stroke="#5dd459" points="576.426,-1017.21 576.519,-1028.18 578.516,-1021.76 580.607,-1026.3 580.607,-1026.3 580.607,-1026.3 578.516,-1021.76 584.695,-1024.42 576.426,-1017.21 576.426,-1017.21"/>
<text text-anchor="middle" x="624.336" y="-996.8" font-family="Times,serif" font-size="14.00">subscribed_events</text>
</g>
<!-- User&#45;&gt;Group -->
<g id="edge23" class="edge"><title>User&#45;&gt;Group</title>
<path fill="none" stroke="#328092" d="M436.554,-727.605C435.263,-724.081 434.078,-720.543 433.015,-717 428.249,-701.117 426.433,-683.459 426.166,-666.791"/>
<ellipse fill="none" stroke="#328092" cx="438.096" cy="-731.567" rx="4.00001" ry="4.00001"/>
<polygon fill="#328092" stroke="#328092" points="426.167,-666.566 430.688,-656.576 426.177,-661.566 426.188,-656.566 426.188,-656.566 426.188,-656.566 426.177,-661.566 421.688,-656.557 426.167,-666.566 426.167,-666.566"/>
</g>
<!-- User&#45;&gt;Membership -->
<g id="edge22" class="edge"><title>User&#45;&gt;Membership</title>
<path fill="none" stroke="#258d6a" d="M413.827,-769.309C390.359,-744.852 368.766,-716.245 356.015,-685 315.135,-584.833 363.078,-459.415 399.22,-387.474"/>
<ellipse fill="none" stroke="#258d6a" cx="416.707" cy="-772.251" rx="4.00002" ry="4.00002"/>
<polygon fill="#258d6a" stroke="#258d6a" points="399.234,-387.448 407.792,-380.591 401.51,-382.996 403.785,-378.543 403.785,-378.543 403.785,-378.543 401.51,-382.996 399.778,-376.495 399.234,-387.448 399.234,-387.448"/>
</g>
<!-- User&#45;&gt;RepetitionScheme -->
<g id="edge18" class="edge"><title>User&#45;&gt;RepetitionScheme</title>
<path fill="none" stroke="#697666" d="M525.824,-725.663C528.232,-717.802 531.223,-710.178 534.911,-703 540.801,-691.536 548.579,-680.826 557.352,-670.98"/>
<polygon fill="#697666" stroke="#697666" points="525.811,-725.711 518.829,-734.166 524.49,-730.533 523.169,-735.355 523.169,-735.355 523.169,-735.355 524.49,-730.533 527.509,-736.544 525.811,-725.711 525.811,-725.711"/>
<polygon fill="#697666" stroke="#697666" points="557.406,-670.921 567.525,-666.695 560.823,-667.27 564.24,-663.62 564.24,-663.62 564.24,-663.62 560.823,-667.27 560.954,-660.545 557.406,-670.921 557.406,-670.921"/>
<text text-anchor="middle" x="582.067" y="-705.8" font-family="Times,serif" font-size="14.00">allowed_signups</text>
</g>
<!-- User&#45;&gt;RepetitionScheme -->
<g id="edge21" class="edge"><title>User&#45;&gt;RepetitionScheme</title>
<path fill="none" stroke="#3418c8" d="M631.338,-805.334C666.497,-783.622 701.402,-754.391 721.015,-717 728.616,-702.51 727.047,-687.18 720.776,-672.568"/>
<ellipse fill="none" stroke="#3418c8" cx="627.732" cy="-807.51" rx="4.00002" ry="4.00002"/>
<polygon fill="#3418c8" stroke="#3418c8" points="720.757,-672.53 720.333,-661.573 718.53,-668.053 716.304,-663.577 716.304,-663.577 716.304,-663.577 718.53,-668.053 712.275,-665.581 720.757,-672.53 720.757,-672.53"/>
<text text-anchor="middle" x="762.342" y="-705.8" font-family="Times,serif" font-size="14.00">slot_schemes</text>
</g>
<!-- User&#45;&gt;Request -->
<g id="edge26" class="edge"><title>User&#45;&gt;Request</title>
<path fill="none" stroke="#00a2eb" d="M412.474,-779.94C386.964,-764.08 359.502,-748.165 333.015,-735 312.612,-724.859 303.345,-730.531 285.015,-717 275.28,-709.814 266.067,-701.301 257.517,-692.198"/>
<ellipse fill="none" stroke="#00a2eb" cx="415.874" cy="-782.067" rx="4.00002" ry="4.00002"/>
<polygon fill="#00a2eb" stroke="#00a2eb" points="257.517,-692.198 254.14,-681.765 254.161,-688.492 250.805,-684.785 250.805,-684.785 250.805,-684.785 254.161,-688.492 247.469,-687.806 257.517,-692.198 257.517,-692.198"/>
</g>
<!-- User&#45;&gt;Subscription -->
<g id="edge19" class="edge"><title>User&#45;&gt;Subscription</title>
<path fill="none" stroke="#182de2" d="M631.743,-816.336C687.38,-793.373 753.644,-760.16 804.015,-717 814.73,-707.819 824.705,-696.913 833.736,-685.515"/>
<ellipse fill="none" stroke="#182de2" cx="628.019" cy="-817.855" rx="4.00002" ry="4.00002"/>
<polygon fill="#182de2" stroke="#182de2" points="833.75,-685.497 843.405,-680.299 836.792,-681.529 839.834,-677.561 839.834,-677.561 839.834,-677.561 836.792,-681.529 836.262,-674.823 833.75,-685.497 833.75,-685.497"/>
</g>
<!-- User&#45;&gt;TimeSlot -->
<g id="edge27" class="edge"><title>User&#45;&gt;TimeSlot</title>
<path fill="none" stroke="#476769" d="M632.375,-832.102C735.233,-807.615 889.789,-761.333 1006.01,-685 1006.67,-684.568 1007.33,-684.13 1007.98,-683.686"/>
<ellipse fill="none" stroke="#476769" cx="628.336" cy="-833.054" rx="4.00001" ry="4.00001"/>
<polygon fill="#476769" stroke="#476769" points="1008.28,-683.464 1019.01,-681.204 1012.32,-680.516 1016.36,-677.569 1016.36,-677.569 1016.36,-677.569 1012.32,-680.516 1013.71,-673.934 1008.28,-683.464 1008.28,-683.464"/>
</g>
<!-- User&#45;&gt;ToDo -->
<g id="edge24" class="edge"><title>User&#45;&gt;ToDo</title>
<path fill="none" stroke="#3b97b6" d="M524.647,-727.169C525.042,-718.987 525.495,-710.876 526.015,-703 531.578,-618.714 525.655,-595.979 546.015,-514 548.284,-504.864 550.909,-495.581 553.789,-486.285"/>
<ellipse fill="none" stroke="#3b97b6" cx="524.455" cy="-731.373" rx="4" ry="4"/>
<polygon fill="#3b97b6" stroke="#3b97b6" points="553.84,-486.126 561.166,-477.967 555.36,-481.363 556.879,-476.599 556.879,-476.599 556.879,-476.599 555.36,-481.363 552.592,-475.232 553.84,-486.126 553.84,-486.126"/>
</g>
<!-- User&#45;&gt;Visibility -->
<g id="edge25" class="edge"><title>User&#45;&gt;Visibility</title>
<path fill="none" stroke="#ac5e01" d="M413.335,-782.082C382.738,-755.54 353.364,-722.645 337.015,-685 298.327,-595.92 285.975,-483.953 282.24,-409.734"/>
<ellipse fill="none" stroke="#ac5e01" cx="416.422" cy="-784.711" rx="4.00002" ry="4.00002"/>
<polygon fill="#ac5e01" stroke="#ac5e01" points="282.23,-409.507 286.264,-399.31 281.999,-404.512 281.769,-399.518 281.769,-399.518 281.769,-399.518 281.999,-404.512 277.273,-399.725 282.23,-409.507 282.23,-409.507"/>
</g>
</g>
</svg>
